<svg width="1440" height="44" viewBox="0 0 1440 44" fill="none" xmlns="http://www.w3.org/2000/svg">
<path d="M0 41.538H98.2638L157.271 2.39172L178.875 25.2823" stroke="#027D4D" stroke-width="2.765"/>
<path d="M178.141 12.0779L259.313 41.83H1440" stroke="url(#paint0_linear_161_3)" stroke-width="2.765"/>
<path d="M181.56 9.46748C181.56 9.46748 179.084 8.32603 176.545 8.213C174.006 8.10003 170.696 12.3993 170.696 12.3993L176.437 17.981C176.437 17.981 176.375 16.5996 177.455 16.3741C178.535 16.1487 181.282 16.7406 181.282 16.7406L182.239 13.1886L181.56 9.46748Z" fill="#027D4D"/>
<path d="M279.752 27.1857L279.816 18.849C279.816 15.6508 279.773 11.7993 279.688 7.29455L291.12 6.88501C291.696 6.88501 292.177 6.9825 292.561 7.17752C292.753 7.29447 293.191 7.62598 293.874 8.17207C296.564 10.3172 297.909 11.8091 297.909 12.6476C297.909 12.9011 297.781 13.2034 297.525 13.5544L294.739 17.2694V17.6497C295.977 18.5857 296.98 19.4925 297.749 20.3701C298.368 21.1306 298.678 21.6669 298.678 21.9789C298.678 22.3884 298.368 22.915 297.749 23.5585L295.731 25.6646C295.091 26.3472 294.322 26.7859 293.426 26.981C292.849 27.1174 291.899 27.1857 290.576 27.1857L279.752 27.1857ZM286.573 16.3918C287.704 16.1968 288.676 15.7776 289.487 15.134C290.149 14.6075 290.48 14.1395 290.48 13.7299C290.48 13.1644 290.074 12.5696 289.263 11.9456C288.451 11.3215 287.448 10.9705 286.252 10.8925L286.573 16.3918ZM287.117 24.6408C288.142 24.4068 288.985 23.9778 289.647 23.3538C290.245 22.8077 290.544 22.2714 290.544 21.7449C290.544 21.2574 290.202 20.7796 289.519 20.3116C288.836 19.8435 287.907 19.4925 286.733 19.2585L287.117 24.6408Z" fill="#027D4D"/>
<path d="M300.822 27.215C301.228 24.5824 301.431 20.7894 301.431 15.8361V14.9293C301.431 11.9846 301.207 9.2739 300.758 6.79724H314.721L316.226 11.7408C314.283 11.5848 312.981 11.5068 312.319 11.5068C311.636 11.5068 310.28 11.5751 308.252 11.7115L308.124 14.6367C309.618 14.7342 310.856 14.7829 311.839 14.7829C312.415 14.7829 313.803 14.6951 316.002 14.5196L315.137 19.4339C313.45 19.2194 312.116 19.1121 311.134 19.1121C311.198 19.1121 310.312 19.1511 308.476 19.229L308.284 22.242L315.809 22.6515L314.144 27.5366C310.686 27.283 307.857 27.1563 305.658 27.1563C304.014 27.1563 302.402 27.1758 300.822 27.2148L300.822 27.215Z" fill="#027D4D"/>
<path d="M317.879 24.4946L317.847 24.1728C319.086 23.9778 320.068 23.5488 320.794 22.8857C321.541 22.2227 321.914 21.4622 321.914 20.6041C321.914 19.7266 321.381 18.6637 320.313 17.4156C319.353 16.3041 318.797 15.6215 318.648 15.368C318.157 14.627 317.911 13.8372 317.911 12.9986C317.911 11.6336 318.456 10.405 319.545 9.31292C320.633 8.22085 322.192 7.38228 324.22 6.79724L329.824 9.63469C327.22 10.7462 325.917 12.0918 325.917 13.6714C325.917 14.237 326.142 14.822 326.59 15.4265C326.654 15.524 327.156 16.0993 328.095 17.1524C329.227 18.42 329.792 19.7363 329.792 21.1014C329.792 23.9291 327.86 26.1034 323.996 27.6245L317.879 24.4946Z" fill="#027D4D"/>
<path d="M332.571 27.1857C332.699 23.149 332.763 20.2238 332.763 18.4102C332.763 15.7385 332.667 12.0528 332.475 7.35298L339.488 7.03122L339.712 14.783H340.513C341.965 12.2088 343.224 9.52738 344.292 6.73871L351.882 8.34758C349.96 10.9217 348.113 13.8079 346.341 17.0061L346.277 17.2986C348.263 19.7168 350.622 22.4567 353.355 25.5184L345.733 27.2735C344.239 25.0699 342.402 22.5542 340.225 19.7265H339.552C339.531 20.526 339.52 21.7449 339.52 23.383C339.52 24.5336 339.552 25.8011 339.616 27.1857H332.571Z" fill="#027D4D"/>
<path d="M354.301 27.1565C354.45 23.3343 354.525 20.5261 354.525 18.732C354.525 16.2748 354.365 12.3258 354.045 6.88501H362.019C361.399 11.5653 361.09 15.7288 361.09 19.3755C361.09 21.8717 361.239 24.4653 361.538 27.1565C360.279 27.137 359.168 27.1272 358.208 27.1272C356.991 27.1272 355.689 27.137 354.301 27.1565H354.301Z" fill="#027D4D"/>
<path d="M373.211 6.88501C375.986 6.88501 378.217 7.32377 379.904 8.20133C381.612 9.07888 382.968 10.4245 383.971 12.2381C384.996 14.1102 385.508 15.7093 385.508 17.0354C385.508 19.8046 384.206 22.3787 381.601 24.7578C380.448 25.8109 379.178 26.5032 377.79 26.8347C376.872 27.0687 375.591 27.1857 373.948 27.1857H364.34C364.49 22.954 364.565 19.8435 364.565 17.8544C364.565 14.4612 364.415 10.8048 364.116 6.88501H373.211ZM370.905 12.0333C370.799 14.471 370.745 16.3918 370.745 17.7959C370.745 18.732 370.799 20.3213 370.905 22.5639C371.055 22.5835 371.279 22.5932 371.578 22.5932C372.603 22.5932 373.595 22.3397 374.556 21.8327C375.752 21.1891 376.819 20.3409 377.758 19.2878C378.527 18.4103 378.911 17.7765 378.911 17.3865C378.911 17.1524 378.687 16.7136 378.239 16.0701C377.684 15.2901 377.011 14.5783 376.221 13.9347C374.684 12.6672 372.912 12.0334 370.905 12.0334V12.0333Z" fill="#027D4D"/>
<path d="M408.805 12.7939C405.688 12.9108 402.453 13.1936 399.101 13.6422L401.119 6.97278C405.154 7.08973 408.015 7.14817 409.701 7.14817C411.174 7.14817 414.772 7.07017 420.493 6.91418L420.685 7.41146C417.035 11.9552 413.864 16.4893 411.174 21.0136C411.345 21.0136 411.601 21.0136 411.943 21.0136C412.284 21.0331 412.541 21.0428 412.711 21.0428C415.316 21.0428 417.963 20.8381 420.653 20.4286L418.7 27.1857C414.217 27.0297 411.1 26.9517 409.349 26.9517C407.556 26.9517 404.375 27.0297 399.806 27.1857L399.582 26.7177C402.998 21.6864 406.072 17.0451 408.805 12.7938L408.805 12.7939Z" fill="#027D4D"/>
<path d="M422.852 27.1565C423.001 23.3343 423.076 20.5261 423.076 18.732C423.076 16.2748 422.916 12.3258 422.596 6.88501H430.57C429.95 11.5653 429.641 15.7288 429.641 19.3755C429.641 21.8717 429.79 24.4653 430.089 27.1565C428.83 27.137 427.719 27.1272 426.759 27.1272C425.542 27.1272 424.24 27.137 422.852 27.1565H422.852Z" fill="#027D4D"/>
<path d="M432.795 27.215C433.201 24.5824 433.404 20.7894 433.404 15.8361V14.9293C433.404 11.9846 433.18 9.2739 432.731 6.79724H446.694L448.199 11.7408C446.256 11.5848 444.954 11.5068 444.292 11.5068C443.609 11.5068 442.253 11.5751 440.225 11.7115L440.097 14.6367C441.591 14.7342 442.829 14.7829 443.811 14.7829C444.388 14.7829 445.776 14.6951 447.975 14.5196L447.11 19.4339C445.423 19.2194 444.089 19.1121 443.107 19.1121C443.171 19.1121 442.285 19.1511 440.449 19.229L440.257 22.242L447.782 22.6515L446.117 27.5366C442.659 27.283 439.83 27.1563 437.631 27.1563C435.987 27.1563 434.375 27.1758 432.795 27.2148V27.215Z" fill="#027D4D"/>
<path d="M466.921 20.4871C466.238 22.4957 465.726 24.7286 465.384 27.1857H450.813C451.005 24.3191 451.101 21.8131 451.101 19.668C451.101 15.8458 450.877 11.5848 450.429 6.88501C451.539 6.90453 452.703 6.91427 453.92 6.91427C456.033 6.91427 457.613 6.90453 458.659 6.88501C458.189 10.5317 457.955 13.9542 457.955 17.1524C457.955 18.225 458.029 19.668 458.179 21.4817C461.061 21.3647 463.975 21.0332 466.921 20.4871H466.921Z" fill="#027D4D"/>
<path d="M478.919 27.1857C475.439 27.1857 472.717 26.2594 470.753 24.4068C468.81 22.5542 467.838 19.9995 467.838 16.7428C467.838 13.6421 468.799 11.224 470.721 9.48843C472.663 7.75282 475.353 6.88501 478.79 6.88501C482.505 6.88501 485.334 7.76254 487.277 9.51765C489.22 11.2532 490.191 13.7884 490.191 17.1231C490.191 20.2628 489.209 22.7297 487.245 24.5238C485.281 26.2984 482.505 27.1857 478.919 27.1857ZM479.271 21.3646C480.829 21.3646 482.11 20.8089 483.114 19.6973C484.032 18.6832 484.491 17.5132 484.491 16.1871C484.491 15.095 484.01 14.159 483.05 13.3789C482.473 12.9109 481.801 12.5306 481.032 12.2381C480.264 11.9456 479.602 11.7993 479.047 11.7993C478.428 11.7993 477.734 11.9553 476.965 12.2674C476.197 12.5599 475.567 12.9206 475.076 13.3496C474.2 14.1297 473.763 15.251 473.763 16.7136C473.763 18.0592 474.35 19.1805 475.524 20.0776C476.592 20.9356 477.84 21.3646 479.271 21.3646Z" fill="#027D4D"/>
<path d="M492.568 27.215C492.782 23.3342 492.888 20.4578 492.888 18.5857C492.888 15.6995 492.728 11.8285 492.408 6.97274C493.604 6.83627 494.511 6.76801 495.13 6.76801C495.877 6.76801 496.55 6.78752 497.147 6.82656C500.841 9.40073 504.534 12.4819 508.228 16.0701L507.363 6.85582L515.273 7.08981C515.145 10.7365 515.081 13.496 515.081 15.3681C515.081 17.9422 515.241 21.8327 515.561 27.0396C514.387 27.1565 513.191 27.215 511.975 27.215H511.238C507.374 23.7633 503.531 20.0873 499.709 16.187L499.133 27.1857L492.568 27.215Z" fill="#027D4D"/>
<path d="M521.133 27.1857L525.04 19.434L517.962 7.00198C520.46 6.88503 522.926 6.82659 525.36 6.82659C526.513 9.30324 527.548 11.4484 528.466 13.262C528.552 13.067 529.619 10.8828 531.669 6.70959C533.526 6.70959 535.597 6.78759 537.881 6.94358C534.743 14.51 531.85 21.2574 529.203 27.1858L521.133 27.1857Z" fill="#027D4D"/>
<path d="M558.435 6.55243C560.079 9.24358 562.161 12.7538 564.68 17.0831C566.815 13.9824 569.121 10.4917 571.597 6.61095L575.728 6.75708C576.134 13.251 577.372 19.9496 579.443 26.8531L571.917 26.9702L570.156 17.9606L563.911 27.2042L558.307 18.8382L555.937 26.9995L548.828 26.9702C550.835 20.3983 552.628 13.6411 554.208 6.69868L558.435 6.55243Z" fill="#F3AD31"/>
<path d="M579.038 26.8239C582.497 20.408 585.784 13.6704 588.901 6.61096H593.929L604.945 26.7362L596.843 27.1165L595.306 23.226C593.684 23.1674 592.435 23.1381 591.559 23.1381C590.791 23.1381 589.585 23.1674 587.941 23.226L586.5 27.0872L579.038 26.8239ZM589.702 18.1654L594.377 18.6042L592.136 13.8361L589.702 18.1654Z" fill="#F3AD31"/>
<path d="M625.355 16.5273C625.185 18.5944 625.099 20.018 625.099 20.7981C625.099 22.1242 625.227 24.1913 625.484 26.9994H620.072C619.623 26.9994 618.855 27.0092 617.766 27.0287C616.698 27.0287 615.834 27.0287 615.172 27.0287C613.421 27.0287 611.489 26.1707 609.376 24.4546C608.031 23.3625 606.931 22.1632 606.077 20.8566C605.309 19.6865 604.924 18.7505 604.924 18.0484C604.924 17.1124 605.351 15.991 606.205 14.6845C607.187 13.1634 608.575 11.691 610.368 10.2675C613.101 8.08331 616.325 6.70848 620.04 6.14294L623.978 10.3552C620.2 11.6813 617.2 13.0464 614.98 14.4504C613.058 15.6595 612.098 16.6248 612.098 17.3464C612.098 17.6779 612.364 18.1265 612.898 18.692C613.517 19.3355 614.297 19.901 615.236 20.3886C616.282 20.9346 617.456 21.2076 618.759 21.2076H618.983C618.983 18.9455 618.919 16.6736 618.791 14.392C620.947 14.9575 623.135 15.6693 625.355 16.5273V16.5273Z" fill="#F3AD31"/>
<path d="M628.21 26.9702C628.359 23.1479 628.434 20.3397 628.434 18.5456C628.434 16.0885 628.274 12.1395 627.954 6.69867H635.928C635.308 11.379 634.999 15.5425 634.999 19.1892C634.999 21.6853 635.148 24.279 635.447 26.9702C634.188 26.9506 633.077 26.9409 632.117 26.9409C630.9 26.9409 629.598 26.9506 628.21 26.9702Z" fill="#F3AD31"/>
<path d="M652.276 11.3789C647.622 12.8025 645.294 14.5576 645.294 16.6443C645.294 18.9649 647.536 20.7493 652.019 21.9974L649.361 27.2627C645.497 26.1901 642.53 24.7665 640.459 22.9919C638.388 21.1978 637.353 19.2184 637.353 17.0538C637.353 12.3735 641.163 8.78534 648.785 6.28918L652.276 11.3789Z" fill="#F3AD31"/>
<path d="M663.324 12.6075C660.207 12.7245 656.972 13.0073 653.621 13.4559L655.638 6.78644C659.673 6.90339 662.534 6.96183 664.22 6.96183C665.694 6.96183 669.291 6.88383 675.012 6.72784L675.205 7.22512C671.554 11.7689 668.383 16.3029 665.693 20.8272C665.864 20.8272 666.12 20.8272 666.462 20.8272C666.804 20.8468 667.06 20.8565 667.231 20.8565C669.835 20.8565 672.483 20.6518 675.172 20.2423L673.219 26.9994C668.736 26.8434 665.619 26.7654 663.868 26.7654C662.075 26.7654 658.894 26.8434 654.325 26.9994L654.101 26.5314C657.517 21.5001 660.591 16.8588 663.324 12.6075Z" fill="#F3AD31"/>
<path d="M677.724 27.0287C677.937 23.1479 678.044 20.2715 678.044 18.3994C678.044 15.5132 677.884 11.6422 677.563 6.78646C678.759 6.64999 679.666 6.58173 680.285 6.58173C681.033 6.58173 681.705 6.60124 682.303 6.64028C685.996 9.21445 689.69 12.2956 693.383 15.8839L692.519 6.66954L700.429 6.90353C700.301 10.5503 700.236 13.3097 700.236 15.1818C700.236 17.756 700.397 21.6465 700.717 26.8533C699.543 26.9702 698.347 27.0287 697.13 27.0287H696.394C692.529 23.577 688.687 19.901 684.865 16.0008L684.289 26.9995L677.724 27.0287Z" fill="#F3AD31"/>
<path d="M702.317 26.8239C705.776 20.408 709.064 13.6704 712.181 6.61096H717.208L728.225 26.7362L720.123 27.1165L718.585 23.226C716.963 23.1674 715.714 23.1381 714.839 23.1381C714.07 23.1381 712.864 23.1674 711.22 23.226L709.779 27.0872L702.317 26.8239ZM712.981 18.1654L717.657 18.6042L715.415 13.8361L712.981 18.1654Z" fill="#F3AD31"/>
<path d="M741.08 26.9994C741.208 22.9627 741.272 20.0375 741.272 18.2239C741.272 15.5522 741.176 11.8665 740.984 7.1667L747.997 6.84494L748.221 14.5967H749.022C750.474 12.0225 751.733 9.3411 752.801 6.55243L760.39 8.16129C758.469 10.7354 756.622 13.6216 754.85 16.8198L754.786 17.1123C756.772 19.5305 759.131 22.2704 761.863 25.332L754.242 27.0872C752.747 24.8835 750.911 22.3679 748.734 19.5402H748.061C748.04 20.3397 748.029 21.5586 748.029 23.1967C748.029 24.3473 748.061 25.6148 748.125 26.9994H741.08Z" fill="#F3AD31"/>
<path d="M763.482 26.9994C763.546 24.2107 763.578 21.9681 763.578 20.2715C763.578 17.0148 763.258 12.5295 762.618 6.81566L774.018 6.72784C776.132 6.72784 777.872 7.23488 779.238 8.24893C780.476 9.1655 781.458 10.1113 782.184 11.0864C782.932 12.0419 783.305 12.8025 783.305 13.368C783.305 14.8501 781.554 16.849 778.053 19.3646C779.014 21.7048 780.594 24.0449 782.793 26.385L776.708 27.2334C774.488 25.2248 772.684 23.0601 771.296 20.7395L770.079 20.6516L769.919 26.9993L763.482 26.9994ZM770.015 18.2824C771.552 17.7558 772.791 17.0928 773.73 16.2933C774.605 15.5327 775.043 14.8307 775.043 14.1871C775.043 13.5826 774.584 13.0171 773.666 12.4905C772.641 11.9445 771.275 11.5642 769.567 11.3497L770.015 18.2824Z" fill="#F3AD31"/>
<path d="M784.19 26.8239C787.649 20.408 790.937 13.6704 794.054 6.61096H799.081L810.098 26.7362L801.996 27.1165L800.458 23.226C798.836 23.1674 797.587 23.1381 796.712 23.1381C795.943 23.1381 794.737 23.1674 793.093 23.226L791.652 27.0872L784.19 26.8239ZM794.854 18.1654L799.53 18.6042L797.288 13.8361L794.854 18.1654Z" fill="#F3AD31"/>
<path d="M810.845 26.9702C810.995 23.1479 811.069 20.3397 811.069 18.5456C811.069 16.0885 810.909 12.1395 810.589 6.69867H818.563C817.944 11.379 817.634 15.5425 817.634 19.1892C817.634 21.6853 817.784 24.279 818.083 26.9702C816.823 26.9506 815.713 26.9409 814.752 26.9409C813.535 26.9409 812.233 26.9506 810.845 26.9702H810.845Z" fill="#F3AD31"/>
<path d="M821.205 27.0287C821.419 23.1479 821.525 20.2715 821.525 18.3994C821.525 15.5132 821.365 11.6422 821.045 6.78646C822.24 6.64999 823.148 6.58173 823.767 6.58173C824.514 6.58173 825.187 6.60124 825.784 6.64028C829.478 9.21445 833.171 12.2956 836.865 15.8839L836 6.66954L843.91 6.90353C843.782 10.5503 843.718 13.3097 843.718 15.1818C843.718 17.756 843.878 21.6465 844.198 26.8533C843.024 26.9702 841.828 27.0287 840.612 27.0287H839.875C836.011 23.577 832.168 19.901 828.346 16.0008L827.77 26.9995L821.205 27.0287Z" fill="#F3AD31"/>
<path d="M845.799 26.8239C849.257 20.408 852.545 13.6704 855.662 6.61096H860.69L871.706 26.7362L863.604 27.1165L862.067 23.226C860.444 23.1674 859.195 23.1381 858.32 23.1381C857.552 23.1381 856.345 23.1674 854.701 23.226L853.26 27.0872L845.799 26.8239ZM856.463 18.1654L861.138 18.6042L858.897 13.8361L856.463 18.1654Z" fill="#F3AD31"/>
<path d="M884.754 20.564L883.185 21.3246V17.3463L884.722 16.732C884.636 13.6313 884.423 10.2869 884.081 6.69867C885.191 6.71819 886.355 6.72793 887.572 6.72793C889.685 6.72793 891.265 6.71819 892.311 6.69867C891.97 9.23383 891.756 11.6325 891.671 13.8946L896.282 11.8177L896.25 15.4157L891.607 17.2878C891.607 18.2824 891.682 19.6182 891.831 21.2953C894.713 21.1784 897.627 20.8469 900.573 20.3008C899.89 22.3094 899.378 24.5423 899.036 26.9994H884.465C884.636 24.6008 884.732 22.4556 884.754 20.564H884.754Z" fill="#F3AD31"/>
<path d="M902.099 27.0287C902.505 24.396 902.708 20.603 902.708 15.6497V14.7429C902.708 11.7983 902.483 9.0876 902.035 6.61096H915.998L917.503 11.5545C915.56 11.3985 914.258 11.3205 913.596 11.3205C912.913 11.3205 911.557 11.3887 909.529 11.5252L909.401 14.4504C910.895 14.5478 912.133 14.5965 913.115 14.5965C913.692 14.5965 915.079 14.5088 917.278 14.3333L916.414 19.2476C914.727 19.0331 913.393 18.9258 912.411 18.9258C912.475 18.9258 911.589 18.9648 909.753 19.0427L909.561 22.0556L917.086 22.4651L915.421 27.3502C911.962 27.0967 909.134 26.9699 906.935 26.9699C905.291 26.9699 903.679 26.9895 902.099 27.0285V27.0287Z" fill="#F3AD31"/>
<path d="M927.835 6.55243C929.479 9.24358 931.56 12.7538 934.079 17.0831C936.214 13.9824 938.52 10.4917 940.997 6.61095L945.128 6.75708C945.533 13.251 946.771 19.9496 948.842 26.8531L941.317 26.9702L939.555 17.9606L933.311 27.2042L927.707 18.8382L925.337 26.9995L918.228 26.9702C920.234 20.3983 922.028 13.6411 923.608 6.69868L927.835 6.55243Z" fill="#F3AD31"/>
<path d="M950.423 26.9994C950.551 22.9627 950.615 20.0375 950.615 18.2239C950.615 15.5522 950.519 11.8665 950.327 7.1667L957.34 6.84494L957.564 14.5967H958.365C959.817 12.0225 961.076 9.3411 962.144 6.55243L969.733 8.16129C967.812 10.7354 965.965 13.6216 964.193 16.8198L964.129 17.1123C966.115 19.5305 968.474 22.2704 971.206 25.332L963.585 27.0872C962.09 24.8835 960.254 22.3679 958.077 19.5402H957.404C957.383 20.3397 957.372 21.5586 957.372 23.1967C957.372 24.3473 957.404 25.6148 957.468 26.9994H950.423Z" fill="#F3AD31"/>
<path d="M982.56 26.9994C979.081 26.9994 976.358 26.0731 974.394 24.2205C972.452 22.3679 971.48 19.8132 971.48 16.5565C971.48 13.4558 972.441 11.0377 974.362 9.30205C976.305 7.56645 978.995 6.69867 982.432 6.69867C986.147 6.69867 988.976 7.5762 990.919 9.33131C992.861 11.0669 993.833 13.6021 993.833 16.9368C993.833 20.0765 992.851 22.5434 990.887 24.3375C988.922 26.1121 986.147 26.9994 982.56 26.9994ZM982.913 21.1783C984.471 21.1783 985.752 20.6225 986.756 19.511C987.674 18.4969 988.133 17.3268 988.133 16.0008C988.133 14.9087 987.652 13.9726 986.691 13.1926C986.115 12.7245 985.443 12.3443 984.674 12.0518C983.905 11.7593 983.244 11.613 982.689 11.613C982.069 11.613 981.376 11.769 980.607 12.081C979.838 12.3735 979.209 12.7343 978.718 13.1633C977.842 13.9434 977.405 15.0647 977.405 16.5273C977.405 17.8728 977.992 18.9942 979.166 19.8912C980.233 20.7493 981.482 21.1783 982.913 21.1783ZM984.066 0C984.578 0.15599 985.902 0.604551 988.036 1.34562C986.371 2.7302 984.407 3.95876 982.144 5.03133L979.166 4.30002C981.365 2.56442 982.998 1.13106 984.066 0Z" fill="#F3AD31"/>
<path d="M994.032 8.74631C996.53 7.84927 999.135 7.31299 1001.85 7.13748C1002.68 10.0041 1003.72 12.9683 1004.98 16.03L1011.13 8.10277C1011.41 7.73225 1011.62 7.54698 1011.77 7.54698C1012.01 7.54698 1012.24 7.70298 1012.48 8.015L1018.21 15.5035C1019.32 12.1298 1020.43 9.07782 1021.54 6.34766C1024.02 6.42557 1026.46 6.91309 1028.87 7.81023C1026.72 13.6216 1024.57 20.018 1022.44 26.9994H1017.79C1016.06 23.6062 1014.15 20.4763 1012.06 17.6096C1009.71 20.7298 1007.76 23.8597 1006.2 26.9994H1000.6C998.548 20.5835 996.36 14.4992 994.032 8.74631Z" fill="#F3AD31"/>
<path d="M1041.83 26.9702C1041.98 23.1479 1042.05 20.3397 1042.05 18.5456C1042.05 16.0885 1041.89 12.1395 1041.57 6.69867H1049.55C1048.93 11.379 1048.62 15.5425 1048.62 19.1892C1048.62 21.6853 1048.77 24.279 1049.07 26.9702C1047.81 26.9506 1046.7 26.9409 1045.74 26.9409C1044.52 26.9409 1043.22 26.9506 1041.83 26.9702H1041.83Z" fill="#F3AD31"/>
<path d="M1068.91 6.69867C1071.49 6.69867 1073.26 6.7377 1074.22 6.81578C1075.68 6.93273 1076.96 7.38125 1078.07 8.16136C1080.76 10.053 1082.1 11.7983 1082.1 13.3974C1082.1 14.7235 1081.76 16.0886 1081.08 17.4927C1080.44 18.8187 1079.66 19.8621 1078.74 20.6226C1077.82 21.3832 1076.1 21.7634 1073.58 21.7634C1072.62 21.7634 1071.57 21.705 1070.41 21.588V22.1438C1070.41 23.8404 1070.55 25.459 1070.83 26.9996C1070.23 26.9996 1069.52 26.9898 1068.68 26.9703C1067.85 26.9703 1067.32 26.9703 1067.08 26.9703C1067.45 26.9703 1066.2 26.9898 1063.34 27.0288C1063.74 22.9531 1063.94 19.4526 1063.94 16.5275C1063.94 13.7973 1063.75 10.5211 1063.37 6.69887L1068.91 6.69867ZM1070.29 18.2824C1072.1 17.8143 1073.63 17.0148 1074.86 15.8837C1075.91 14.9282 1076.43 14.1091 1076.43 13.4266C1076.43 12.822 1075.95 12.2078 1074.99 11.5837C1074.29 11.1352 1072.84 10.4136 1070.64 9.41908C1070.4 12.0907 1070.29 14.6064 1070.29 16.966V18.2824Z" fill="#F3AD31"/>
<path d="M1094.89 26.9994C1091.41 26.9994 1088.69 26.0731 1086.73 24.2205C1084.78 22.3679 1083.81 19.8132 1083.81 16.5565C1083.81 13.4558 1084.77 11.0377 1086.7 9.30205C1088.64 7.56645 1091.33 6.69867 1094.77 6.69867C1098.48 6.69867 1101.31 7.5762 1103.25 9.33131C1105.19 11.0669 1106.17 13.6021 1106.17 16.9368C1106.17 20.0765 1105.18 22.5434 1103.22 24.3375C1101.26 26.1121 1098.48 26.9994 1094.89 26.9994ZM1095.25 21.1783C1096.8 21.1783 1098.09 20.6225 1099.09 19.511C1100.01 18.4969 1100.47 17.3268 1100.47 16.0008C1100.47 14.9087 1099.99 13.9726 1099.02 13.1926C1098.45 12.7245 1097.78 12.3443 1097.01 12.0518C1096.24 11.7593 1095.58 11.613 1095.02 11.613C1094.4 11.613 1093.71 11.769 1092.94 12.081C1092.17 12.3735 1091.54 12.7343 1091.05 13.1633C1090.18 13.9434 1089.74 15.0647 1089.74 16.5273C1089.74 17.8728 1090.33 18.9942 1091.5 19.8912C1092.57 20.7493 1093.82 21.1783 1095.25 21.1783Z" fill="#F3AD31"/>
<path d="M1127.85 16.5273C1127.68 18.5944 1127.6 20.018 1127.6 20.7981C1127.6 22.1242 1127.73 24.1913 1127.98 26.9994H1122.57C1122.12 26.9994 1121.35 27.0092 1120.26 27.0287C1119.2 27.0287 1118.33 27.0287 1117.67 27.0287C1115.92 27.0287 1113.99 26.1707 1111.87 24.4546C1110.53 23.3625 1109.43 22.1632 1108.58 20.8566C1107.81 19.6865 1107.42 18.7505 1107.42 18.0484C1107.42 17.1124 1107.85 15.991 1108.7 14.6845C1109.69 13.1634 1111.07 11.691 1112.87 10.2675C1115.6 8.08331 1118.82 6.70848 1122.54 6.14294L1126.48 10.3552C1122.7 11.6813 1119.7 13.0464 1117.48 14.4504C1115.56 15.6595 1114.6 16.6248 1114.6 17.3464C1114.6 17.6779 1114.86 18.1264 1115.4 18.692C1116.02 19.3355 1116.8 19.901 1117.73 20.3886C1118.78 20.9346 1119.95 21.2076 1121.26 21.2076H1121.48C1121.48 18.9455 1121.42 16.6736 1121.29 14.392C1123.45 14.9575 1125.63 15.6692 1127.85 16.5273Z" fill="#F3AD31"/>
<path d="M1141.12 26.9994C1137.64 26.9994 1134.91 26.0731 1132.95 24.2205C1131.01 22.3679 1130.04 19.8132 1130.04 16.5565C1130.04 13.4558 1131 11.0377 1132.92 9.30205C1134.86 7.56645 1137.55 6.69867 1140.99 6.69867C1144.7 6.69867 1147.53 7.5762 1149.47 9.33131C1151.42 11.0669 1152.39 13.6021 1152.39 16.9368C1152.39 20.0765 1151.41 22.5434 1149.44 24.3375C1147.48 26.1121 1144.7 26.9994 1141.12 26.9994ZM1141.47 21.1783C1143.03 21.1783 1144.31 20.6225 1145.31 19.511C1146.23 18.4969 1146.69 17.3268 1146.69 16.0008C1146.69 14.9087 1146.21 13.9726 1145.25 13.1926C1144.67 12.7245 1144 12.3443 1143.23 12.0518C1142.46 11.7593 1141.8 11.613 1141.24 11.613C1140.62 11.613 1139.93 11.769 1139.16 12.081C1138.39 12.3735 1137.76 12.7343 1137.27 13.1633C1136.4 13.9434 1135.96 15.0647 1135.96 16.5273C1135.96 17.8728 1136.55 18.9942 1137.72 19.8912C1138.79 20.7493 1140.04 21.1783 1141.47 21.1783ZM1142.62 0C1143.13 0.15599 1144.46 0.604551 1146.59 1.34562C1144.93 2.7302 1142.96 3.95876 1140.7 5.03133L1137.72 4.30002C1139.92 2.56442 1141.55 1.13106 1142.62 0Z" fill="#F3AD31"/>
<path d="M1155.09 26.9994C1155.15 24.2107 1155.18 21.9681 1155.18 20.2715C1155.18 17.0148 1154.86 12.5295 1154.22 6.81566L1165.62 6.72784C1167.74 6.72784 1169.48 7.23488 1170.84 8.24893C1172.08 9.1655 1173.06 10.1113 1173.79 11.0864C1174.53 12.0419 1174.91 12.8025 1174.91 13.368C1174.91 14.8501 1173.16 16.849 1169.66 19.3646C1170.62 21.7048 1172.2 24.0449 1174.4 26.385L1168.31 27.2334C1166.09 25.2248 1164.29 23.0601 1162.9 20.7395L1161.68 20.6516L1161.52 26.9993L1155.09 26.9994ZM1161.62 18.2824C1163.16 17.7558 1164.39 17.0928 1165.33 16.2933C1166.21 15.5327 1166.65 14.8307 1166.65 14.1871C1166.65 13.5826 1166.19 13.0171 1165.27 12.4905C1164.24 11.9445 1162.88 11.5642 1161.17 11.3497L1161.62 18.2824Z" fill="#F3AD31"/>
<path d="M1186.65 12.6075C1183.53 12.7245 1180.3 13.0073 1176.95 13.4559L1178.96 6.78644C1183 6.90339 1185.86 6.96183 1187.55 6.96183C1189.02 6.96183 1192.62 6.88383 1198.34 6.72784L1198.53 7.22512C1194.88 11.7689 1191.71 16.3029 1189.02 20.8272C1189.19 20.8272 1189.45 20.8272 1189.79 20.8272C1190.13 20.8468 1190.39 20.8565 1190.56 20.8565C1193.16 20.8565 1195.81 20.6518 1198.5 20.2423L1196.55 26.9994C1192.06 26.8434 1188.94 26.7654 1187.19 26.7654C1185.4 26.7654 1182.22 26.8434 1177.65 26.9994L1177.43 26.5314C1180.84 21.5001 1183.92 16.8588 1186.65 12.6075Z" fill="#F3AD31"/>
<path d="M1198.94 26.8239C1202.39 20.408 1205.68 13.6704 1208.8 6.61096H1213.83L1224.84 26.7362L1216.74 27.1165L1215.2 23.226C1213.58 23.1674 1212.33 23.1381 1211.46 23.1381C1210.69 23.1381 1209.48 23.1674 1207.84 23.226L1206.4 27.0872L1198.94 26.8239ZM1209.6 18.1654L1214.28 18.6042L1212.03 13.8361L1209.6 18.1654Z" fill="#F3AD31"/>
<path d="M1225.94 27.0287C1226.16 23.1479 1226.26 20.2715 1226.26 18.3994C1226.26 15.5132 1226.1 11.6422 1225.78 6.78646C1226.98 6.64999 1227.89 6.58173 1228.51 6.58173C1229.25 6.58173 1229.92 6.60124 1230.52 6.64028C1234.22 9.21445 1237.91 12.2956 1241.6 15.8839L1240.74 6.66954L1248.65 6.90353C1248.52 10.5503 1248.46 13.3097 1248.46 15.1818C1248.46 17.756 1248.62 21.6465 1248.94 26.8533C1247.76 26.9702 1246.57 27.0287 1245.35 27.0287H1244.61C1240.75 23.577 1236.91 19.901 1233.08 16.0008L1232.51 26.9995L1225.94 27.0287Z" fill="#F3AD31"/>
<defs>
<linearGradient id="paint0_linear_161_3" x1="255.5" y1="41.9994" x2="1440" y2="42.0002" gradientUnits="userSpaceOnUse">
<stop stop-color="#027D4D"/>
<stop offset="0.385417" stop-color="#F3AD31"/>
</linearGradient>
</defs>
</svg>
