<?xml version="1.0" standalone="no"?>
<!DOCTYPE svg PUBLIC "-//W3C//DTD SVG 20010904//EN"
 "http://www.w3.org/TR/2001/REC-SVG-20010904/DTD/svg10.dtd">
<svg version="1.0" xmlns="http://www.w3.org/2000/svg"
 width="1500.000000pt" height="1500.000000pt" viewBox="0 0 1500.000000 1500.000000"
 preserveAspectRatio="xMidYMid meet">
<metadata>
Created by potrace 1.14, written by Peter Selinger 2001-2017
</metadata>
<g transform="translate(0.000000,1500.000000) scale(0.100000,-0.100000)"
fill="#000000" stroke="none">
<path d="M6770 14898 c-112 -10 -154 -19 -163 -34 -4 -7 -15 -10 -23 -7 -9 3
-20 0 -25 -8 -4 -8 -14 -14 -21 -14 -37 0 -158 -88 -158 -115 0 -6 -4 -8 -10
-5 -5 3 -10 2 -10 -3 0 -5 -9 -19 -20 -32 -11 -12 -17 -27 -14 -31 3 -5 1 -9
-4 -9 -12 0 -55 -106 -70 -170 -10 -45 -9 -180 3 -235 27 -128 80 -236 156
-316 31 -32 61 -59 68 -59 6 0 11 -5 11 -11 0 -6 7 -9 15 -5 8 3 15 1 15 -4 0
-11 106 -60 131 -60 11 0 19 -4 19 -9 0 -5 13 -9 29 -9 15 1 34 -3 42 -8 20
-13 192 -14 207 -1 7 5 28 10 47 9 19 -1 35 3 35 8 0 6 9 10 20 10 11 0 29 5
40 10 11 6 29 15 40 20 11 6 27 10 35 10 8 0 15 5 15 10 0 6 9 10 20 10 11 0
19 4 17 9 -1 5 1 8 5 8 4 -1 14 7 22 18 9 11 16 17 16 13 0 -4 10 3 23 15 13
12 22 25 20 30 -2 4 4 7 13 7 10 0 14 3 11 6 -3 4 7 19 23 34 16 15 26 30 23
34 -3 3 -1 6 6 6 7 0 10 4 6 9 -3 5 -1 13 5 16 20 12 65 134 69 185 6 78 5
173 -2 210 -16 84 -18 94 -25 104 -4 6 -7 13 -7 16 -1 18 -49 120 -57 120 -5
0 -6 5 -3 10 3 6 -1 13 -9 16 -9 3 -16 11 -16 17 0 14 -79 85 -102 93 -10 3
-18 10 -18 15 0 5 -9 9 -19 9 -11 0 -22 4 -25 9 -6 8 -50 21 -95 27 -13 2 -36
7 -50 12 -14 4 -59 9 -100 11 -41 1 -77 3 -80 4 -3 1 -40 -1 -81 -5z"/>
<path d="M8656 14084 c-9 -8 -16 -20 -16 -26 0 -6 -3 -8 -7 -4 -4 4 -14 -8
-23 -26 -9 -18 -22 -32 -29 -30 -7 1 -10 -2 -6 -8 3 -5 1 -10 -4 -10 -6 0 -11
-5 -11 -11 0 -6 -16 -26 -35 -43 -19 -18 -32 -36 -28 -39 3 -4 -2 -7 -12 -7
-10 0 -16 -2 -13 -5 3 -3 -19 -31 -49 -62 -29 -31 -53 -61 -53 -65 0 -4 -7 -8
-17 -8 -9 0 -13 -3 -10 -6 7 -7 -50 -64 -64 -64 -5 0 -9 -7 -9 -17 0 -9 -3
-14 -6 -11 -3 3 -22 -10 -43 -31 -79 -76 -120 -111 -132 -111 -7 0 -10 -3 -6
-6 9 -10 -27 -41 -42 -36 -8 3 -12 1 -8 -4 3 -6 -13 -22 -36 -37 -23 -15 -41
-31 -40 -35 0 -4 -3 -6 -7 -5 -5 2 -17 -8 -27 -20 -10 -13 -24 -22 -32 -19 -8
3 -11 0 -8 -5 3 -5 -12 -20 -34 -33 -21 -14 -39 -27 -39 -30 0 -3 -16 -14 -35
-24 -19 -11 -35 -23 -35 -28 0 -5 -4 -7 -9 -4 -5 3 -12 -1 -15 -10 -3 -8 -10
-12 -16 -9 -6 3 -13 -1 -16 -9 -3 -9 -9 -14 -13 -11 -4 2 -19 -7 -34 -21 -15
-13 -29 -24 -33 -23 -3 0 -16 -8 -29 -19 -13 -11 -26 -18 -29 -15 -3 4 -6 1
-6 -5 0 -6 -9 -14 -21 -17 -12 -4 -29 -13 -38 -21 -9 -8 -20 -14 -24 -14 -4 1
-15 -6 -23 -15 -9 -8 -20 -13 -25 -10 -5 4 -9 -1 -9 -9 0 -10 -6 -13 -15 -10
-8 4 -15 1 -15 -5 0 -6 -6 -11 -14 -11 -8 0 -16 -3 -18 -7 -5 -12 -108 -65
-108 -56 0 4 -5 0 -11 -10 -6 -9 -14 -15 -19 -12 -4 3 -11 -2 -14 -11 -3 -8
-10 -12 -16 -9 -6 3 -17 -1 -26 -9 -8 -9 -22 -16 -30 -16 -8 0 -14 -5 -14 -11
0 -5 -5 -7 -11 -3 -6 3 -15 1 -19 -7 -5 -7 -14 -14 -22 -15 -15 -2 -76 -33
-68 -35 3 0 13 -2 23 -5 9 -2 25 -6 35 -8 9 -3 18 -5 20 -6 1 -2 5 -3 10 -4 4
-1 13 -5 20 -10 7 -4 16 -5 19 -2 3 3 15 0 27 -6 11 -7 24 -13 29 -14 4 -1 9
-3 12 -4 3 -1 8 -3 13 -4 29 -8 122 -63 122 -73 0 -6 9 -18 20 -26 11 -8 17
-17 13 -20 -3 -4 0 -7 7 -7 7 0 10 -3 7 -6 -3 -4 -2 -15 3 -25 7 -12 7 -20 0
-24 -6 -4 -8 -11 -5 -16 4 -5 2 -9 -2 -9 -5 0 -15 -17 -22 -37 -7 -21 -26 -50
-42 -64 -15 -15 -25 -30 -22 -33 4 -3 -1 -6 -10 -6 -9 0 -21 -9 -27 -20 -6
-11 -15 -18 -21 -14 -5 3 -1 -9 10 -27 11 -18 18 -36 15 -41 -3 -4 -1 -8 5 -8
9 0 27 -38 23 -52 -1 -4 18 -1 43 6 24 8 46 11 49 8 3 -2 12 1 21 8 8 7 15 9
15 5 0 -4 6 -2 13 4 8 6 17 8 20 5 4 -4 19 -2 34 5 15 6 39 13 53 15 14 3 27
5 30 6 3 2 8 2 13 1 4 0 7 3 7 8 0 5 8 8 18 6 9 -1 23 2 30 8 6 5 12 6 12 2 0
-4 7 -2 15 5 8 7 15 10 15 7 0 -3 15 0 34 8 18 8 36 11 40 8 3 -4 6 -2 6 4 0
5 6 10 13 10 20 1 42 7 47 15 3 4 19 9 35 12 16 3 31 10 33 16 2 5 7 8 12 5
10 -6 76 21 85 34 3 6 12 8 20 4 8 -3 15 1 15 8 0 7 3 10 6 6 7 -7 126 51 136
67 4 6 10 7 14 4 4 -4 20 2 36 13 16 12 34 22 41 23 7 1 27 12 45 24 18 13 32
20 32 17 0 -4 7 0 15 7 34 31 43 36 49 31 3 -4 6 0 6 7 0 7 3 10 6 7 4 -4 15
3 25 15 11 11 19 18 19 14 0 -4 12 2 26 13 15 12 33 21 41 21 8 0 11 5 8 10
-3 6 -2 10 4 10 5 0 16 6 23 13 7 6 25 18 40 26 15 8 25 17 23 21 -2 4 7 12
20 18 25 12 31 9 65 -35 37 -47 60 -83 60 -93 0 -6 5 -8 10 -5 6 3 10 -1 10
-9 0 -9 4 -16 10 -16 5 0 17 -16 26 -35 9 -19 21 -35 26 -35 5 0 6 -5 3 -10
-3 -6 1 -13 9 -16 9 -3 16 -12 16 -20 0 -8 5 -14 10 -14 6 0 10 -6 10 -13 0
-7 9 -23 20 -35 11 -12 20 -26 20 -32 0 -6 4 -9 9 -6 5 3 11 -4 15 -17 3 -12
21 -39 41 -60 37 -40 44 -53 23 -42 -7 4 -4 -2 7 -12 11 -10 27 -27 35 -38 13
-17 13 -18 0 -11 -8 4 -1 -5 15 -19 17 -15 23 -23 15 -19 -8 5 0 -10 18 -33
17 -22 32 -46 32 -52 0 -6 4 -11 9 -11 5 0 12 -12 15 -26 4 -15 10 -24 13 -21
3 4 17 -16 31 -43 14 -28 29 -50 34 -50 4 0 8 -7 8 -15 0 -9 7 -18 15 -21 8
-4 12 -10 9 -15 -3 -5 0 -9 6 -9 7 0 10 -6 7 -14 -3 -7 2 -20 11 -29 24 -22
36 -40 40 -57 2 -8 13 -26 25 -39 12 -14 15 -21 7 -17 -13 7 -13 6 0 -6 19
-17 38 -46 51 -80 6 -16 16 -28 22 -28 6 0 7 -3 4 -7 -4 -3 5 -22 20 -41 15
-20 20 -32 12 -27 -9 5 -7 1 4 -12 9 -11 17 -25 17 -31 0 -7 5 -12 11 -12 5 0
7 -4 4 -10 -3 -5 -2 -10 3 -10 7 0 33 -44 34 -60 1 -3 8 -11 17 -18 9 -8 10
-11 4 -7 -9 4 -11 1 -7 -9 3 -9 11 -13 17 -9 6 4 8 0 4 -10 -3 -10 -2 -17 3
-17 5 0 12 -11 16 -25 3 -14 10 -25 15 -25 5 0 8 -3 7 -7 -2 -8 33 -84 42 -93
6 -6 63 -122 81 -167 8 -18 18 -33 22 -33 5 0 5 -4 2 -10 -3 -5 -1 -10 5 -10
6 0 9 -4 5 -9 -3 -5 2 -16 10 -25 8 -8 14 -19 13 -23 -1 -4 16 -45 38 -90 22
-45 35 -79 30 -77 -6 3 -3 -1 8 -10 10 -8 15 -19 11 -25 -3 -6 -1 -11 6 -11 7
0 10 -3 6 -6 -3 -3 5 -26 18 -50 13 -24 20 -42 15 -39 -4 3 0 -11 10 -31 17
-33 39 -87 45 -109 2 -5 9 -23 16 -40 7 -16 12 -33 11 -37 -1 -5 2 -8 6 -8 4
0 8 -10 9 -22 1 -11 7 -24 13 -28 7 -4 11 -9 10 -11 -5 -9 21 -89 30 -94 6 -4
8 -11 5 -16 -4 -5 -3 -15 2 -21 4 -7 8 -15 9 -18 0 -3 4 -14 8 -25 4 -11 12
-31 16 -45 4 -14 12 -34 16 -45 4 -11 6 -26 5 -32 -1 -7 4 -13 10 -13 7 0 10
-3 7 -6 -4 -3 -2 -20 3 -37 15 -47 19 -68 24 -112 3 -22 7 -58 10 -80 14 -96
28 -353 28 -485 -1 -154 -16 -398 -29 -460 -3 -14 -7 -41 -9 -60 -2 -19 -6
-46 -10 -60 -3 -14 -8 -36 -10 -50 -2 -14 -7 -36 -10 -50 -3 -14 -8 -41 -11
-60 -3 -19 -10 -43 -15 -52 -5 -10 -7 -18 -3 -18 3 0 1 -6 -5 -13 -6 -8 -8
-17 -4 -20 3 -4 1 -12 -4 -19 -6 -7 -9 -21 -8 -30 2 -10 -1 -18 -6 -18 -6 0
-8 -4 -5 -8 3 -5 -1 -21 -9 -36 -8 -14 -9 -24 -4 -20 6 4 4 -5 -5 -18 -9 -14
-13 -28 -9 -31 3 -4 1 -7 -5 -7 -6 0 -9 -7 -6 -15 4 -8 1 -15 -6 -15 -6 0 -9
-4 -5 -9 3 -5 1 -12 -4 -16 -6 -3 -8 -12 -4 -20 3 -8 1 -15 -5 -15 -10 0 -27
-47 -23 -67 1 -7 -2 -13 -7 -13 -4 0 -16 -23 -26 -50 -10 -27 -23 -50 -28 -50
-6 0 -8 -7 -4 -15 3 -8 1 -15 -5 -15 -6 0 -7 -4 -4 -10 3 -6 1 -10 -5 -10 -7
0 -10 -6 -7 -14 3 -8 -1 -17 -9 -20 -9 -3 -13 -10 -10 -15 3 -5 -1 -14 -9 -21
-8 -7 -12 -16 -9 -21 3 -5 0 -9 -6 -9 -6 0 -8 -4 -5 -10 3 -5 1 -10 -6 -10 -7
0 -10 -3 -6 -6 3 -3 1 -11 -4 -18 -5 -6 -38 -56 -71 -111 -34 -55 -66 -101
-70 -103 -4 -2 -8 -10 -8 -18 0 -8 -7 -17 -15 -20 -8 -4 -12 -10 -9 -15 3 -5
1 -9 -4 -9 -5 0 -17 -15 -27 -34 -11 -19 -22 -33 -26 -30 -4 2 -10 -4 -13 -14
-3 -9 -18 -31 -33 -48 -52 -57 -71 -82 -68 -86 1 -1 -9 -14 -23 -28 -16 -16
-20 -17 -11 -5 13 18 13 19 -3 6 -10 -7 -18 -17 -18 -21 0 -5 -31 -41 -70 -81
-38 -39 -70 -77 -70 -82 0 -6 -3 -7 -6 -4 -4 4 -25 -13 -47 -36 -22 -23 -37
-35 -33 -27 5 8 -5 0 -22 -17 -16 -18 -34 -33 -40 -33 -6 0 -12 -4 -14 -8 -4
-12 -130 -101 -193 -137 -27 -16 -51 -33 -53 -37 -2 -4 -8 -8 -14 -8 -5 0 -22
-9 -36 -19 -15 -10 -29 -19 -32 -19 -14 -2 -47 -17 -58 -29 -8 -7 -18 -11 -23
-8 -5 4 -9 1 -9 -5 0 -6 -4 -8 -10 -5 -5 3 -10 1 -10 -5 0 -6 -5 -8 -10 -5 -6
3 -17 -1 -26 -9 -9 -9 -19 -14 -24 -11 -5 3 -10 1 -12 -5 -2 -6 -14 -12 -27
-15 -14 -2 -29 -9 -34 -14 -5 -5 -16 -7 -23 -4 -8 3 -14 0 -14 -6 0 -6 -3 -10
-7 -10 -5 1 -10 0 -13 -1 -3 -1 -12 -3 -20 -5 -8 -2 -33 -11 -55 -21 -22 -9
-47 -18 -55 -20 -8 -1 -29 -7 -47 -12 -17 -6 -34 -8 -37 -4 -3 3 -6 0 -6 -6 0
-7 -11 -12 -24 -12 -14 0 -37 -5 -53 -11 -15 -6 -37 -12 -48 -14 -35 -6 -50
-10 -60 -16 -5 -3 -22 -5 -37 -4 -16 1 -28 -1 -28 -5 0 -4 -6 -7 -12 -8 -50
-5 -143 -19 -143 -22 0 -1 -16 -3 -35 -5 -19 -2 -51 -6 -70 -10 -19 -3 -57 -8
-85 -10 -27 -2 -81 -6 -120 -10 -93 -10 -639 -10 -740 -1 -44 4 -102 9 -130
11 -27 2 -70 6 -95 10 -25 3 -63 8 -85 10 -22 2 -56 6 -75 9 -19 3 -57 8 -83
11 -27 3 -52 7 -57 10 -4 2 -27 7 -51 10 -59 7 -72 9 -85 17 -12 8 -11 -69 1
-147 3 -22 8 -58 10 -80 2 -22 7 -58 10 -80 3 -22 8 -56 10 -75 2 -19 4 -38 4
-42 1 -4 9 -7 19 -7 9 0 33 -2 52 -6 19 -4 60 -8 90 -10 30 -2 82 -6 115 -10
33 -3 103 -8 155 -10 52 -2 136 -7 185 -11 126 -9 628 -9 760 1 61 4 139 9
175 10 36 2 90 6 120 10 30 3 75 8 100 10 25 1 68 6 95 9 28 4 66 9 85 12 20
2 47 7 60 10 14 2 46 6 71 8 26 2 52 7 59 11 7 4 31 9 54 10 22 2 41 4 41 5 0
3 57 15 110 23 11 1 26 6 33 10 6 5 17 5 22 2 6 -4 16 -2 23 3 7 6 28 13 47
15 19 3 35 6 35 7 0 1 11 4 25 7 33 6 54 11 60 13 3 1 8 2 13 1 4 0 7 3 7 7 0
4 8 8 18 9 43 3 62 8 62 16 0 4 4 5 10 2 5 -3 22 1 38 9 16 8 32 12 35 9 4 -3
12 -1 20 5 7 6 25 13 40 16 15 2 32 8 39 13 7 4 22 9 33 10 11 2 21 8 23 13 2
5 9 7 17 4 7 -3 16 0 20 5 3 6 11 9 16 6 5 -4 9 -2 9 4 0 6 7 8 15 5 8 -4 15
-1 15 5 0 6 9 11 19 11 11 0 23 5 26 10 4 6 10 8 15 5 5 -3 11 -1 15 5 4 6 11
8 16 5 5 -4 9 -1 9 4 0 6 9 11 19 11 11 0 23 5 26 10 4 6 11 8 16 5 5 -4 9 -1
9 5 0 6 5 8 10 5 6 -3 10 -1 10 5 0 6 4 9 9 5 5 -3 17 3 27 12 10 10 18 17 18
15 1 -2 15 2 31 8 17 6 31 10 33 8 2 -2 8 5 13 15 6 9 14 15 20 12 5 -4 16 1
25 9 9 9 20 14 25 11 5 -4 9 -2 9 4 0 6 11 13 25 17 14 3 25 10 25 16 0 5 4 7
9 3 6 -3 14 3 20 12 5 10 11 17 13 16 7 -5 48 10 48 18 0 5 9 9 20 9 11 0 19
6 18 13 -2 6 5 11 15 11 9 -1 17 5 17 13 0 8 4 11 10 8 5 -3 20 3 32 14 12 12
28 21 35 21 7 0 13 5 13 10 0 6 7 10 15 10 8 0 15 3 15 8 0 4 17 18 38 32 20
14 39 27 42 30 3 3 23 18 45 35 22 16 44 35 48 42 5 7 12 11 17 8 5 -3 11 4
15 15 3 11 10 19 14 17 5 -1 23 13 40 30 17 18 31 30 31 27 0 -3 13 8 29 25
16 17 34 31 40 31 6 0 10 4 9 9 -3 11 61 71 75 71 6 0 8 3 4 6 -3 3 5 17 19
31 13 13 24 28 24 34 0 6 5 7 10 4 6 -3 10 -2 10 4 0 5 16 27 35 48 67 72 76
83 69 83 -4 0 3 9 16 20 13 11 20 20 17 20 -4 0 2 10 13 23 53 58 55 60 40 52
-13 -8 -13 -7 0 11 8 10 21 25 28 32 6 7 12 20 12 28 0 8 5 12 10 9 9 -5 12 1
9 21 0 4 3 10 8 13 11 7 67 103 68 114 0 4 6 12 14 16 7 5 11 13 7 19 -3 5 1
13 10 16 8 3 13 10 10 15 -4 5 1 16 9 24 8 9 15 20 15 26 0 6 4 11 10 11 5 0
7 6 4 13 -2 7 4 24 15 36 12 13 18 28 15 32 -3 5 0 9 5 9 6 0 10 3 9 8 -1 4 8
26 20 50 12 23 20 42 17 42 -4 0 4 14 16 32 13 17 18 28 12 25 -7 -4 -2 12 10
35 12 24 30 68 41 98 10 30 23 66 29 80 9 23 15 47 19 78 1 6 6 12 11 12 5 0
7 7 3 15 -3 8 -1 15 4 15 5 0 7 7 4 15 -4 8 -1 15 4 15 6 0 10 8 10 18 -1 9 5
37 12 62 16 55 20 69 25 95 2 11 7 31 10 45 12 54 27 126 30 155 3 17 7 41 10
55 3 14 7 48 10 75 3 28 7 66 10 85 22 149 22 610 0 721 -3 13 -7 51 -10 84
-2 33 -7 71 -10 85 -4 14 -8 39 -10 55 -2 17 -6 41 -9 55 -3 14 -8 42 -11 64
-3 21 -8 42 -11 47 -3 5 -7 23 -9 41 -6 46 -9 61 -18 76 -5 6 -6 12 -3 12 2 0
0 15 -5 33 -6 17 -13 46 -16 62 -3 17 -9 38 -15 48 -5 10 -7 21 -4 24 3 4 2
11 -3 17 -10 13 -36 108 -33 119 1 4 -2 7 -6 7 -5 0 -9 7 -10 15 -1 8 -3 22
-4 30 -1 8 -5 15 -10 15 -5 0 -8 6 -7 13 1 6 -1 21 -5 32 -4 11 -13 34 -19 50
-7 17 -12 33 -13 38 -1 4 -3 10 -4 15 -1 4 -2 10 -1 15 0 4 -3 7 -7 7 -4 0 -8
10 -9 22 -1 11 -8 25 -15 29 -7 5 -9 9 -5 9 4 0 2 10 -5 23 -6 12 -13 29 -15
38 -1 8 -9 29 -18 45 -8 16 -15 35 -15 42 0 6 -4 12 -10 12 -5 0 -9 3 -8 8 1
4 -3 22 -9 40 -7 18 -12 35 -12 39 1 3 -4 9 -11 13 -6 4 -12 13 -14 21 -1 8
-11 32 -23 54 -11 22 -24 51 -28 65 -4 14 -16 34 -26 45 -10 11 -17 22 -17 25
2 14 -15 50 -23 50 -6 0 -7 5 -4 10 3 6 1 10 -5 10 -6 0 -9 4 -5 9 3 5 -6 27
-21 48 -14 21 -40 65 -56 98 -17 33 -34 62 -39 63 -5 2 -7 8 -3 13 3 5 0 9 -6
9 -6 0 -9 4 -6 9 3 5 -1 11 -9 15 -8 3 -15 12 -15 20 0 16 -49 106 -50 91 -1
-5 -7 5 -16 24 -8 19 -22 40 -32 48 -11 10 -12 12 -2 8 10 -4 9 -2 -2 8 -10 8
-18 19 -18 26 0 6 -5 11 -11 11 -5 0 -7 5 -4 10 3 6 1 10 -4 10 -6 0 -11 7
-11 15 0 8 -4 15 -10 15 -5 0 -10 5 -10 10 0 6 -20 36 -45 67 -24 31 -43 59
-41 61 2 2 -6 15 -19 29 -46 51 -53 61 -48 67 3 3 -2 8 -11 12 -9 3 -16 11
-16 16 0 12 -108 159 -124 170 -6 4 -11 11 -11 15 0 5 -10 20 -23 33 -13 14
-32 40 -43 58 -12 17 -25 32 -30 32 -6 0 -7 5 -4 10 3 6 1 10 -5 10 -6 0 -8 5
-5 10 3 6 -2 10 -11 10 -10 0 -15 3 -11 6 6 6 -4 21 -39 57 -11 12 -23 30 -27
40 -3 9 -11 17 -16 17 -6 0 -18 15 -27 33 -9 17 -28 42 -42 55 -14 12 -21 22
-16 22 5 0 1 5 -8 11 -10 5 -18 15 -18 21 0 6 -16 25 -36 43 -20 19 -33 38
-29 44 3 6 -1 11 -9 11 -8 0 -18 9 -21 20 -3 11 -11 20 -16 20 -6 0 -8 4 -4 9
3 5 -4 12 -15 16 -11 4 -18 10 -16 14 3 4 -12 26 -34 49 -21 23 -35 42 -32 42
4 0 0 6 -8 13 -9 7 -29 31 -46 54 -17 24 -34 40 -37 36 -4 -3 -7 1 -7 10 0 10
-5 17 -11 17 -5 0 -8 4 -5 9 3 5 -3 11 -14 14 -11 3 -20 12 -20 21 0 9 -4 16
-10 16 -5 0 -10 5 -10 11 0 7 -12 24 -27 40 -16 15 -39 42 -53 59 -14 17 -35
42 -48 56 -13 13 -20 24 -18 24 3 0 -8 13 -24 29 -17 15 -30 33 -30 39 0 5 -7
12 -15 16 -8 3 -15 13 -15 21 0 9 -4 13 -10 10 -5 -3 -10 -2 -10 4 0 6 -11 22
-25 36 -14 14 -23 25 -19 25 3 0 -11 16 -32 36 -22 20 -32 32 -24 28 8 -4 -1
8 -20 28 -48 50 -60 65 -60 78 0 5 -7 10 -16 10 -8 0 -13 4 -10 8 3 5 -6 16
-20 26 -13 11 -24 23 -24 27 0 5 -9 18 -19 30 -11 11 -32 35 -48 51 -15 17
-21 27 -13 23 8 -5 2 5 -15 21 -45 44 -80 88 -77 97 3 12 -5 8 -22 -9z"/>
<path d="M5344 13558 c-9 -18 -26 -43 -38 -55 -12 -12 -21 -26 -21 -31 0 -4
-8 -16 -18 -26 -9 -10 -15 -22 -12 -27 4 -5 1 -9 -5 -9 -6 0 -15 -11 -20 -25
-5 -14 -14 -25 -20 -25 -6 0 -8 -4 -5 -10 3 -5 -1 -21 -10 -34 -13 -19 -14
-29 -5 -45 6 -12 8 -21 5 -21 -7 0 48 -55 55 -55 3 -1 18 -12 33 -25 16 -14
29 -23 30 -20 1 2 14 -6 28 -18 24 -21 26 -29 24 -93 -1 -44 -6 -74 -14 -78
-7 -5 -12 -11 -12 -15 3 -19 0 -26 -13 -26 -8 0 -17 -7 -20 -16 -3 -8 -10 -12
-16 -9 -5 3 -10 1 -10 -4 0 -6 -5 -11 -10 -11 -6 0 -20 -9 -32 -20 -12 -11
-28 -20 -37 -20 -8 0 -11 -3 -8 -6 4 -4 -9 -19 -28 -34 -19 -15 -32 -30 -28
-34 3 -3 -2 -6 -12 -6 -10 0 -16 -3 -12 -6 3 -4 -3 -24 -14 -45 -11 -22 -15
-39 -9 -39 6 0 10 -6 9 -12 -3 -21 22 -78 32 -72 5 3 9 -1 9 -9 0 -16 46 -58
54 -50 3 4 6 -1 6 -11 0 -9 5 -14 10 -11 6 3 13 -1 16 -9 3 -9 10 -13 15 -10
5 3 12 -2 15 -10 3 -9 12 -16 20 -16 8 0 14 -5 14 -11 0 -6 6 -9 14 -6 8 3 20
0 26 -8 7 -8 22 -17 33 -21 12 -4 28 -14 35 -23 10 -12 12 -12 6 -1 -6 13 -5
13 12 -1 10 -8 31 -20 47 -27 27 -12 37 -38 15 -40 -22 -1 -67 -12 -94 -22
-15 -6 -29 -8 -32 -6 -2 3 -11 -1 -18 -9 -8 -8 -21 -12 -29 -9 -8 4 -15 1 -15
-5 0 -6 -8 -11 -18 -11 -10 0 -28 -7 -40 -16 -12 -8 -22 -12 -22 -7 0 4 -4 3
-8 -4 -4 -6 -13 -13 -21 -15 -7 -2 -24 -12 -36 -23 -67 -58 -91 -81 -94 -90
-2 -5 -13 -19 -25 -30 -22 -21 -41 -54 -38 -67 1 -5 -3 -8 -9 -8 -5 0 -7 -4
-4 -10 3 -5 2 -10 -4 -10 -6 0 -7 -7 -4 -17 4 -11 3 -14 -5 -9 -8 5 -10 2 -6
-8 3 -9 2 -16 -3 -16 -5 0 -10 -12 -11 -26 -1 -15 -6 -32 -10 -38 -5 -6 -8
-20 -7 -31 0 -11 -3 -28 -8 -38 -7 -14 -4 -18 10 -15 10 2 20 6 23 10 3 4 15
9 27 11 12 1 28 8 35 15 8 6 18 9 21 6 3 -3 12 -2 19 2 7 5 16 9 21 10 4 1 8
2 10 4 3 2 40 11 55 12 6 1 12 5 12 9 0 4 8 6 18 5 9 -2 19 1 22 5 3 5 24 11
45 14 22 2 41 9 43 15 2 6 8 8 13 4 5 -3 26 0 47 7 20 8 46 14 57 14 11 0 25
4 32 8 6 4 29 9 50 12 37 4 75 11 81 15 1 2 8 3 15 4 6 1 10 10 8 21 -10 60
-6 293 6 322 7 18 12 34 11 35 -6 7 64 138 73 138 6 0 8 4 5 8 -6 10 54 58 66
54 5 -1 7 3 5 9 -1 5 22 20 51 33 41 17 69 22 128 21 50 -1 79 -6 84 -15 4 -7
13 -9 19 -6 6 4 14 0 17 -9 4 -9 12 -14 19 -11 6 2 18 -4 25 -14 8 -11 17 -17
22 -14 4 3 11 -2 14 -11 4 -9 18 -28 33 -43 38 -41 72 -82 66 -82 -3 0 6 -19
20 -43 29 -51 66 -153 58 -161 -4 -3 -2 -6 4 -6 5 0 10 -6 11 -12 0 -7 3 -24
7 -38 4 -14 7 -35 8 -48 1 -22 4 -23 52 -17 27 3 73 7 100 9 28 2 68 7 90 11
22 5 58 9 80 10 22 1 48 5 57 9 9 4 41 9 70 10 30 1 59 5 65 9 6 4 33 10 60
13 26 3 50 10 51 15 2 5 9 6 15 2 7 -4 6 1 -2 10 -7 9 -10 17 -7 17 4 0 0 7
-8 16 -9 8 -14 20 -11 25 4 5 1 9 -6 9 -7 0 -9 3 -6 7 4 3 -5 27 -20 52 -15
25 -26 46 -24 46 5 0 -13 40 -21 46 -13 9 -21 82 -8 74 5 -3 10 -2 10 3 0 5 9
12 21 15 18 5 19 8 8 20 -8 8 -21 13 -29 12 -8 -1 -23 2 -32 6 -9 5 -29 10
-45 12 -15 2 -38 9 -50 15 -12 7 -26 11 -30 10 -7 -2 -65 15 -103 29 -8 4 -22
7 -30 8 -31 4 -110 29 -110 36 0 3 -11 5 -24 4 -13 -2 -36 3 -51 11 -15 8 -31
12 -35 9 -5 -3 -11 -1 -15 5 -4 6 -10 8 -15 5 -5 -3 -11 -1 -15 5 -10 17 -33
11 -31 -7 2 -10 -1 -31 -6 -48 -6 -16 -10 -37 -10 -47 1 -28 -37 -53 -80 -53
-31 -1 -48 6 -70 27 -32 30 -33 33 -43 233 -2 44 -6 91 -10 105 -3 14 -7 31
-9 37 -1 7 -12 24 -24 38 -12 14 -22 30 -22 36 0 6 -6 9 -12 6 -7 -2 -26 2
-43 8 -30 12 -99 12 -145 0 -14 -4 -34 -7 -45 -6 -10 0 -24 -4 -30 -8 -22 -18
-64 -21 -78 -6 -8 8 -17 11 -21 8 -3 -4 -6 -1 -6 6 0 7 -9 26 -21 42 -11 16
-22 37 -24 47 -2 9 -4 17 -6 17 -1 0 -2 13 -3 28 -1 19 4 32 16 38 10 6 16 14
13 20 -4 5 -2 9 4 9 5 0 13 10 17 23 4 12 10 24 13 27 15 11 39 90 30 96 -6 3
-8 11 -6 17 4 13 -57 77 -73 77 -5 0 -10 5 -10 10 0 6 -6 10 -13 10 -8 0 -22
9 -32 20 -10 11 -22 17 -26 14 -5 -3 -12 2 -15 10 -3 9 -11 16 -16 16 -6 0
-29 13 -52 28 -22 15 -46 31 -53 35 -8 5 -18 -4 -29 -25z"/>
<path d="M8520 12390 c-25 -16 -51 -34 -57 -40 -7 -6 -13 -9 -13 -6 0 2 -26
-11 -57 -30 -31 -19 -63 -34 -70 -34 -7 0 -13 -4 -13 -10 0 -5 -7 -10 -15 -10
-8 0 -15 -5 -15 -12 0 -6 -3 -8 -7 -5 -3 4 -13 1 -21 -5 -8 -7 -19 -13 -26
-14 -6 -1 -40 -16 -75 -33 -36 -17 -70 -31 -77 -31 -6 0 -17 -7 -24 -15 -7 -8
-16 -12 -21 -9 -5 2 -21 -2 -37 -10 -65 -34 -374 -134 -471 -152 -14 -3 -29
-8 -34 -11 -6 -3 -22 -8 -36 -9 -14 -2 -55 -10 -91 -19 -36 -8 -76 -17 -90
-20 -46 -8 -75 -13 -105 -19 -16 -3 -57 -10 -90 -16 -33 -5 -71 -11 -85 -14
-25 -5 -68 -11 -135 -21 -19 -3 -51 -7 -70 -10 -19 -3 -50 -7 -67 -10 -18 -2
-55 -7 -83 -9 -27 -3 -68 -8 -90 -12 -22 -3 -58 -7 -80 -8 -22 -2 -40 -4 -40
-5 0 -2 -35 -6 -135 -16 -30 -3 -66 -7 -80 -10 -14 -3 -52 -7 -85 -11 -69 -6
-100 -11 -100 -13 0 -1 -18 -4 -40 -5 -22 -2 -60 -7 -85 -10 -25 -4 -59 -9
-75 -11 -17 -2 -42 -6 -55 -9 -14 -4 -38 -8 -55 -11 -115 -16 -144 -21 -165
-29 -8 -3 -31 -7 -50 -10 -19 -3 -80 -17 -135 -32 -55 -14 -106 -26 -112 -27
-7 0 -13 -3 -13 -6 0 -4 -12 -8 -27 -9 -16 -1 -30 -7 -31 -12 -2 -6 -8 -8 -13
-4 -5 3 -9 0 -9 -6 0 -6 -5 -8 -10 -5 -11 7 -80 -15 -80 -25 0 -3 -10 -6 -22
-7 -11 -1 -24 -6 -27 -10 -3 -4 -15 -10 -26 -11 -11 -2 -21 -8 -23 -13 -2 -5
-12 -9 -23 -9 -10 0 -19 -5 -19 -11 0 -5 -3 -8 -7 -6 -5 3 -30 -8 -58 -24 -27
-16 -59 -33 -70 -38 -35 -16 -95 -68 -87 -76 4 -5 2 -5 -5 -1 -7 3 -25 -7 -42
-23 -17 -17 -31 -29 -31 -26 0 4 -37 -29 -152 -135 -106 -97 -136 -128 -130
-134 3 -3 -2 -6 -11 -6 -10 0 -17 -4 -17 -8 0 -5 -15 -24 -32 -43 -18 -19 -53
-58 -78 -88 -25 -29 -51 -59 -57 -67 -7 -7 -13 -17 -13 -23 0 -6 -4 -11 -10
-11 -5 0 -10 -4 -10 -10 0 -5 -8 -19 -17 -29 -35 -38 -42 -49 -36 -55 4 -3 2
-6 -4 -6 -10 0 -103 -143 -103 -159 0 -5 -4 -11 -8 -13 -15 -6 -136 -258 -147
-308 -2 -8 -4 -16 -5 -17 -2 -2 -3 -6 -5 -10 -1 -5 -5 -17 -9 -28 -33 -87 -52
-169 -80 -339 -16 -106 -15 -438 3 -531 7 -33 14 -71 16 -85 7 -46 36 -164 51
-210 9 -25 17 -52 19 -60 2 -8 9 -28 16 -45 7 -16 12 -33 11 -37 -1 -4 8 -28
20 -55 12 -26 21 -51 20 -55 -1 -5 3 -8 8 -8 5 0 9 -3 8 -7 -3 -16 81 -193
137 -288 20 -33 38 -68 42 -77 3 -10 9 -18 14 -18 5 0 9 -5 9 -11 0 -16 162
-250 177 -256 7 -3 11 -9 8 -13 -3 -5 5 -19 19 -33 13 -13 36 -42 51 -65 15
-23 32 -39 38 -35 6 3 7 1 3 -5 -4 -6 2 -17 14 -24 11 -7 20 -18 20 -25 0 -6
5 -15 12 -19 6 -4 8 -3 4 4 -3 5 -3 12 2 14 4 1 27 53 51 113 24 61 54 133 66
160 33 74 38 89 37 98 -1 4 3 7 8 7 6 0 10 5 10 11 0 9 81 188 109 239 27 51
80 149 92 170 7 14 14 27 14 30 0 3 8 16 17 30 13 21 122 203 153 258 6 9 25
38 43 65 18 26 30 47 27 47 -3 0 6 12 20 28 29 30 60 83 57 95 -1 5 1 6 6 3 5
-3 17 9 27 26 10 18 27 42 38 54 10 12 20 26 20 31 1 8 20 33 45 58 6 8 12 16
12 19 0 3 8 14 18 24 9 10 28 33 42 52 29 39 142 176 168 203 9 11 16 23 15
28 -2 5 0 8 5 6 4 -1 8 1 9 6 2 4 21 24 42 44 22 20 38 40 35 45 -3 5 0 7 7 6
7 -2 13 2 14 9 0 6 12 21 28 33 15 12 24 27 20 33 -3 7 -3 9 1 5 10 -8 47 23
40 34 -3 5 0 7 8 6 7 -2 12 3 11 10 -2 6 1 12 6 12 12 0 96 83 93 93 -1 4 3 7
9 7 14 0 39 25 39 39 0 6 7 11 15 11 8 0 20 11 27 24 7 14 18 26 23 28 6 1 30
22 55 45 79 74 125 113 133 113 5 0 5 5 2 10 -3 6 1 10 9 10 9 0 16 3 16 8 0
4 38 38 85 76 47 39 85 74 85 78 0 5 5 6 10 3 6 -3 10 -2 10 4 0 5 16 19 35
31 19 12 33 26 29 31 -3 5 -2 8 3 7 10 -4 103 63 103 74 0 4 4 8 10 8 10 0 37
20 72 53 10 9 18 15 18 12 0 -4 145 102 193 141 9 8 19 14 22 14 12 0 134 88
130 94 -3 3 -2 4 1 2 3 -3 24 6 46 20 69 44 108 55 197 55 55 0 176 -34 269
-77 29 -13 56 -24 60 -24 4 0 25 -16 46 -35 22 -19 43 -35 48 -35 4 0 7 -3 6
-7 -2 -12 38 -94 43 -88 6 6 10 -27 11 -100 2 -68 -25 -163 -54 -194 -10 -12
-16 -21 -12 -21 3 0 -25 -30 -63 -67 -37 -37 -67 -71 -65 -75 1 -4 -2 -7 -7
-6 -11 3 -201 -191 -201 -204 0 -5 -4 -6 -10 -3 -5 3 -10 2 -10 -4 0 -6 -12
-23 -27 -39 -60 -62 -93 -102 -86 -102 5 0 0 -6 -9 -13 -33 -25 -97 -111 -91
-121 3 -6 3 -8 -2 -4 -7 7 -112 -116 -116 -137 -2 -5 -9 -16 -17 -24 -12 -12
-41 -54 -77 -110 -5 -8 -16 -21 -23 -29 -7 -7 -10 -17 -7 -22 3 -5 2 -10 -3
-12 -15 -6 -52 -61 -46 -69 3 -5 1 -9 -5 -9 -5 0 -27 -30 -47 -67 -21 -38 -46
-80 -56 -95 -11 -16 -16 -28 -13 -28 3 0 -3 -13 -14 -29 -11 -15 -18 -31 -14
-35 3 -3 1 -6 -6 -6 -7 0 -10 -4 -7 -9 4 -5 3 -11 -1 -13 -12 -5 -56 -88 -47
-88 4 0 0 -8 -8 -17 -15 -19 -69 -136 -72 -159 -1 -8 -8 -20 -14 -26 -7 -7
-12 -17 -12 -24 0 -6 -8 -29 -17 -50 -9 -22 -18 -43 -20 -49 -1 -5 -30 -91
-63 -189 -33 -99 -58 -181 -55 -184 3 -3 1 -10 -4 -16 -6 -7 -12 -23 -14 -36
-3 -14 -12 -52 -20 -85 -9 -33 -18 -73 -21 -90 -3 -16 -9 -43 -13 -60 -3 -16
-7 -42 -7 -57 -1 -16 -4 -28 -8 -28 -5 0 -7 -3 -6 -7 1 -5 -2 -28 -6 -53 -16
-96 -29 -193 -41 -310 -3 -25 -7 -63 -10 -85 -8 -69 -18 -345 -18 -475 1 -205
-2 -189 39 -206 20 -8 51 -17 70 -20 18 -2 53 -8 76 -13 24 -5 50 -9 58 -9 15
0 59 -6 110 -16 35 -6 124 -16 190 -22 30 -2 70 -6 89 -10 126 -21 746 -21
849 0 13 3 50 6 83 8 32 2 59 5 59 8 0 3 12 6 28 7 15 1 43 5 62 8 19 3 59 8
88 11 28 4 52 10 52 14 0 4 18 7 41 8 22 1 46 5 52 9 12 8 29 12 60 15 9 1 17
5 17 8 0 3 10 6 22 7 37 3 138 36 138 45 0 5 5 6 11 3 9 -6 117 31 129 44 3 3
12 7 20 9 23 4 114 46 121 55 3 5 9 8 13 7 12 -3 116 51 116 61 0 5 3 9 8 8
15 -2 52 14 52 22 0 5 5 9 10 9 12 0 73 41 78 53 2 4 10 7 17 7 8 0 32 17 55
38 22 22 41 37 43 35 7 -6 222 207 220 217 -2 6 3 9 10 7 6 -1 11 4 10 11 -2
6 2 12 8 12 13 0 65 61 62 72 -2 4 3 8 10 8 7 0 20 12 29 28 9 15 28 39 42 53
14 15 22 30 19 33 -4 3 -2 6 4 6 13 0 159 219 156 232 -2 4 2 8 8 8 5 0 7 5 4
10 -3 6 -1 10 4 10 14 0 147 273 143 293 -1 4 3 7 10 7 6 0 8 3 5 7 -4 3 -3
11 2 17 8 11 55 142 57 161 0 6 4 19 8 30 5 11 12 31 17 45 5 14 11 39 14 55
3 17 11 57 20 90 8 33 17 74 20 90 3 17 8 41 10 55 3 14 7 41 10 60 3 19 7 46
10 60 25 122 25 657 0 825 -2 17 -7 53 -10 80 -5 46 -50 206 -64 230 -3 6 -7
19 -8 29 -2 11 -7 24 -12 30 -5 6 -11 22 -14 36 -6 31 -38 115 -89 240 -41
100 -42 102 -53 138 -4 12 -12 22 -17 22 -5 0 -6 4 -3 10 3 5 0 20 -7 32 -6
13 -13 28 -14 33 -1 6 -21 49 -43 98 -22 48 -41 88 -40 90 2 6 -196 394 -209
410 -8 9 -12 17 -9 17 3 0 -13 33 -35 73 -67 117 -86 150 -109 195 -12 23 -27
42 -31 42 -5 0 -7 4 -4 8 3 5 -4 19 -15 30 -11 12 -18 22 -15 22 3 0 -22 44
-56 98 -34 53 -66 106 -72 117 -6 11 -33 54 -60 95 -26 41 -71 110 -98 153
-28 42 -55 77 -60 77 -5 0 -7 4 -4 9 3 4 -4 19 -15 32 -12 13 -27 36 -35 52
-8 15 -19 27 -24 27 -6 0 -10 5 -10 11 0 11 -53 91 -77 117 -7 7 -13 18 -13
23 0 15 -12 10 -60 -21z"/>
<path d="M5894 12306 c-51 -58 -63 -178 -29 -286 6 -19 11 -19 70 -3 17 5 51
8 76 8 46 -1 47 0 43 30 -6 56 -16 95 -25 95 -5 0 -9 11 -9 25 0 14 -5 25 -11
25 -5 0 -7 5 -4 10 3 6 1 10 -6 10 -7 0 -10 3 -6 6 3 3 2 11 -3 18 -6 6 -21
26 -36 44 -28 34 -42 39 -60 18z"/>
<path d="M4582 11700 c-12 -11 -25 -20 -31 -20 -5 0 -11 -6 -14 -14 -3 -8 -19
-17 -36 -21 -17 -4 -29 -10 -26 -15 3 -4 -9 -13 -25 -20 -17 -7 -30 -19 -30
-27 0 -8 -4 -12 -8 -9 -5 3 -20 -5 -33 -17 -13 -12 -27 -21 -31 -19 -5 1 -8
-2 -8 -8 0 -5 -7 -10 -16 -10 -8 0 -12 -4 -9 -10 3 -5 2 -10 -2 -10 -11 0 -44
-25 -83 -62 -16 -14 -31 -23 -34 -20 -3 3 -6 -3 -6 -12 0 -12 -5 -16 -15 -12
-9 3 -15 0 -15 -8 0 -8 -15 -23 -32 -35 -18 -11 -29 -21 -24 -21 6 0 -8 -14
-31 -30 -23 -17 -44 -37 -47 -45 -3 -8 -12 -15 -21 -15 -8 0 -14 -3 -13 -7 2
-5 -22 -33 -52 -63 -30 -30 -55 -58 -55 -62 0 -5 -4 -8 -10 -9 -5 0 -16 -11
-23 -25 -7 -13 -17 -22 -22 -19 -6 4 -7 -2 -3 -12 3 -10 3 -15 -2 -11 -8 8
-75 -60 -75 -77 0 -3 -10 -17 -22 -30 -39 -41 -47 -53 -42 -58 3 -3 -4 -10
-15 -17 -12 -6 -19 -14 -17 -19 3 -4 -4 -13 -14 -21 -10 -8 -17 -17 -14 -22 3
-4 1 -8 -3 -8 -5 0 -22 -22 -38 -50 -17 -27 -33 -50 -37 -50 -5 0 -8 -7 -8
-15 0 -8 -3 -15 -8 -15 -4 0 -13 -9 -20 -21 -11 -17 -11 -20 0 -14 7 4 6 1 -2
-7 -23 -20 -50 -65 -50 -83 0 -9 -4 -14 -9 -11 -5 3 -12 -1 -15 -10 -4 -10 -2
-13 7 -9 6 4 3 -1 -7 -9 -11 -9 -16 -16 -12 -16 4 0 0 -7 -8 -16 -9 -8 -14
-20 -11 -25 4 -5 2 -9 -3 -9 -9 0 -116 -216 -110 -224 2 -2 -6 -14 -17 -27
-11 -12 -14 -19 -7 -15 11 7 11 4 0 -15 -7 -13 -15 -26 -18 -29 -3 -3 -6 -9
-7 -15 -1 -5 -12 -35 -23 -65 -12 -30 -22 -61 -23 -67 0 -7 -5 -13 -10 -13 -5
0 -6 -8 -3 -17 4 -9 2 -19 -4 -23 -6 -4 -13 -22 -15 -41 -2 -19 -4 -34 -5 -34
-2 0 -9 -35 -15 -75 -9 -58 -12 -75 -15 -75 -1 0 -4 -27 -6 -60 -2 -33 -6 -80
-8 -105 -6 -53 -7 -264 -1 -335 5 -77 15 -167 20 -195 3 -14 7 -43 10 -65 3
-22 7 -51 11 -65 3 -14 7 -34 9 -45 5 -27 14 -65 21 -95 3 -14 7 -33 7 -42 1
-10 5 -18 10 -18 4 0 5 -4 2 -10 -3 -5 -3 -16 2 -22 9 -16 14 -37 14 -60 0
-10 4 -18 8 -18 4 0 8 -7 9 -15 1 -8 3 -22 4 -30 1 -8 6 -15 11 -15 5 0 7 -7
4 -15 -4 -8 -2 -17 4 -20 5 -4 7 -11 4 -16 -4 -5 -1 -9 5 -9 6 0 9 -4 5 -9 -3
-5 -1 -12 4 -16 6 -3 8 -12 4 -20 -3 -8 0 -15 7 -15 6 0 8 -4 5 -10 -3 -5 -1
-10 4 -10 6 0 10 -3 10 -7 -1 -5 0 -11 1 -15 1 -5 3 -11 4 -15 1 -5 7 -18 14
-30 7 -13 10 -23 6 -23 -4 0 1 -10 12 -22 12 -13 13 -18 4 -13 -9 5 -8 0 4
-13 11 -12 15 -22 11 -22 -4 0 0 -9 10 -20 10 -11 15 -20 11 -20 -9 0 45 -102
59 -112 6 -4 6 -8 2 -8 -5 0 0 -12 11 -27 11 -16 20 -31 21 -36 1 -8 8 -21 79
-135 29 -46 52 -87 52 -92 0 -4 7 -11 16 -14 9 -4 14 -9 11 -12 -5 -5 16 -34
51 -70 7 -8 11 -14 8 -14 -6 0 15 -28 42 -55 6 -8 12 -16 12 -20 0 -6 29 -40
73 -85 15 -15 27 -31 27 -34 0 -4 31 -38 68 -75 38 -38 72 -76 75 -85 4 -9 13
-16 22 -16 8 0 15 -7 15 -17 0 -9 3 -14 6 -10 3 3 20 -10 37 -29 18 -19 35
-34 39 -34 11 0 47 -37 42 -43 -2 -2 8 -9 23 -16 16 -7 25 -9 21 -5 -4 4 -3
13 3 21 6 7 9 13 6 13 -3 0 3 25 13 55 10 30 16 55 13 55 -3 0 0 7 7 15 7 9
10 18 7 22 -4 3 -2 12 4 20 6 7 9 13 6 13 -4 0 2 20 13 46 11 25 15 42 10 39
-6 -3 -7 1 -4 9 3 9 10 16 15 16 5 0 9 10 9 23 0 12 4 29 9 36 11 17 -2 46
-33 76 -12 11 -24 24 -26 30 -3 5 -8 9 -12 8 -5 -2 -7 1 -5 6 1 5 -8 18 -21
29 -13 11 -24 24 -25 29 -1 4 -6 7 -10 5 -5 -1 -6 2 -3 7 3 5 -6 19 -21 31
-16 12 -21 19 -13 15 10 -4 9 -2 -2 8 -10 8 -18 19 -18 26 0 6 -7 11 -15 11
-8 0 -14 6 -12 13 1 6 -4 11 -11 9 -8 -1 -12 3 -10 10 2 6 -3 19 -11 29 -54
59 -64 72 -51 65 8 -4 3 3 -11 16 -14 13 -24 29 -21 36 2 7 0 11 -5 10 -4 -2
-9 1 -10 6 -1 5 -5 12 -10 15 -13 10 -63 90 -63 101 0 6 -4 8 -10 5 -5 -3 -12
6 -16 20 -3 14 -10 25 -16 25 -5 0 -6 5 -3 10 3 6 1 10 -4 10 -6 0 -11 7 -11
15 0 8 -5 15 -11 15 -5 0 -8 4 -5 9 3 5 -1 14 -9 21 -8 7 -25 35 -38 61 -12
27 -26 49 -30 49 -5 0 -5 5 -2 10 3 6 1 10 -6 10 -7 0 -10 3 -6 6 3 3 -5 24
-19 45 -13 21 -22 39 -20 39 2 0 -6 20 -20 46 -13 25 -24 52 -24 60 0 7 -4 14
-8 14 -6 0 -51 108 -58 140 0 3 -6 17 -12 32 -12 30 -41 127 -43 143 0 6 -5
15 -11 22 -5 7 -7 17 -3 23 3 5 1 10 -5 10 -6 0 -8 5 -5 10 3 6 3 16 -2 23 -4
6 -9 19 -11 27 -7 38 -13 66 -15 80 -2 9 -5 20 -9 25 -3 6 -4 20 -3 33 1 12
-1 22 -5 22 -3 0 -7 10 -8 23 -2 26 -7 76 -18 172 -10 85 -10 327 0 410 4 33
9 78 11 100 2 22 6 51 10 65 3 14 8 37 9 51 2 14 6 31 10 37 4 7 9 31 12 54 3
23 11 49 17 57 7 8 11 16 9 18 -2 2 4 29 14 61 10 31 19 66 21 77 2 10 8 22
14 25 5 4 9 11 7 16 -1 5 3 19 10 30 6 12 8 24 5 28 -3 3 -1 6 5 6 7 0 12 7
12 15 0 9 10 35 22 58 12 23 22 44 23 47 0 3 5 12 10 20 5 8 10 21 11 28 2 8
10 22 18 31 9 10 13 21 9 24 -3 4 -1 7 6 7 7 0 9 5 6 10 -3 6 -2 10 2 10 5 0
19 19 31 43 35 67 63 112 73 115 5 2 9 9 9 16 0 6 13 26 29 43 16 18 26 35 23
38 -3 3 7 17 22 30 16 14 26 25 21 25 -4 0 3 9 16 21 13 11 17 17 9 13 -8 -3
0 7 18 25 18 17 30 31 27 31 -3 0 6 11 21 25 15 14 23 25 18 25 -5 0 3 8 19
18 15 10 24 21 21 25 -4 4 1 9 10 13 9 3 16 13 16 21 0 8 5 11 10 8 6 -3 10
-2 10 2 0 5 7 18 16 29 8 10 12 13 8 5 -5 -9 -3 -12 4 -7 7 4 12 12 12 17 0
14 61 75 72 72 4 -2 8 0 8 5 0 10 57 72 66 72 3 0 24 18 45 40 22 22 39 37 39
33 0 -5 16 9 35 30 19 21 35 35 35 31 0 -4 12 7 26 24 15 18 33 32 41 32 7 0
16 7 19 15 4 8 11 15 18 15 14 0 49 46 52 68 2 10 6 32 9 50 7 38 6 38 -23 12z"/>
<path d="M7190 10749 c0 -5 -9 -9 -19 -9 -10 0 -22 -7 -25 -16 -3 -8 -10 -12
-16 -9 -5 3 -10 2 -10 -2 0 -5 -18 -19 -40 -33 -22 -14 -40 -28 -40 -32 0 -5
-6 -8 -13 -8 -7 0 -23 -9 -35 -20 -12 -11 -26 -20 -32 -20 -5 0 -10 -7 -10
-15 0 -9 -6 -12 -15 -9 -8 4 -15 1 -15 -5 0 -6 -6 -11 -13 -11 -7 0 -19 -9
-27 -20 -8 -11 -20 -20 -27 -20 -7 0 -13 -4 -13 -10 0 -5 -7 -10 -15 -10 -8 0
-15 -4 -15 -10 0 -5 -7 -10 -16 -10 -8 0 -12 -4 -9 -10 3 -5 0 -10 -9 -10 -8
0 -16 -3 -18 -7 -1 -5 -22 -21 -45 -37 -24 -16 -40 -33 -36 -39 3 -6 1 -7 -6
-3 -7 5 -20 -1 -30 -13 -10 -12 -22 -21 -27 -21 -5 0 -16 -9 -24 -20 -8 -11
-18 -20 -23 -20 -4 0 -18 -10 -31 -22 -12 -13 -38 -34 -56 -48 -19 -14 -46
-38 -62 -54 -15 -16 -28 -26 -28 -23 0 3 -18 -12 -40 -34 -21 -21 -44 -39 -50
-39 -6 0 -8 -4 -5 -10 3 -5 1 -10 -4 -10 -17 0 -50 -33 -44 -43 3 -6 1 -7 -5
-3 -7 4 -12 3 -12 -2 0 -5 -11 -15 -25 -22 -14 -7 -25 -20 -25 -28 0 -9 -3
-13 -6 -9 -8 8 -33 -16 -27 -25 2 -5 0 -8 -6 -8 -5 0 -48 -38 -96 -85 -47 -47
-82 -85 -78 -85 4 0 -4 -8 -20 -18 -15 -10 -24 -22 -20 -25 3 -4 -1 -7 -10 -7
-9 0 -17 -4 -17 -9 0 -5 -21 -31 -47 -59 -84 -88 -111 -120 -105 -126 3 -3 -2
-6 -11 -6 -9 0 -17 -3 -17 -8 0 -4 -11 -20 -25 -35 -14 -15 -23 -27 -20 -27 2
0 -9 -13 -27 -30 -17 -16 -28 -30 -25 -30 4 0 -7 -13 -25 -30 -17 -16 -28 -30
-25 -30 3 0 -10 -17 -28 -37 -19 -21 -35 -44 -35 -50 0 -7 -4 -13 -9 -13 -4 0
-21 -19 -37 -42 -16 -24 -39 -54 -51 -68 -13 -14 -23 -30 -23 -37 0 -7 -8 -17
-17 -22 -10 -6 -14 -11 -10 -11 4 0 3 -6 -3 -12 -46 -56 -60 -75 -60 -85 0 -7
-5 -13 -11 -13 -6 0 -9 -7 -5 -15 3 -9 0 -15 -9 -15 -8 0 -15 -7 -15 -15 0 -8
-4 -15 -9 -15 -5 0 -14 -13 -21 -30 -7 -16 -17 -30 -22 -30 -5 0 -7 -4 -3 -9
3 -5 -1 -15 -8 -23 -20 -21 -52 -72 -49 -80 1 -5 -3 -8 -9 -8 -5 0 -7 -4 -4
-10 3 -5 1 -10 -4 -10 -6 0 -11 -7 -11 -15 0 -8 -4 -15 -9 -15 -5 0 -12 -11
-15 -25 -4 -14 -11 -25 -17 -25 -6 0 -7 -4 -4 -10 3 -5 1 -10 -5 -10 -6 0 -8
-4 -5 -10 3 -5 1 -10 -5 -10 -6 0 -8 -4 -5 -10 3 -5 3 -10 -2 -10 -4 0 -13
-10 -19 -23 -6 -12 -45 -87 -85 -167 -72 -142 -140 -284 -144 -306 -2 -5 -12
-30 -24 -54 -11 -24 -21 -50 -21 -57 0 -7 -4 -13 -10 -13 -5 0 -9 -3 -8 -7 3
-15 -25 -93 -34 -93 -5 0 -7 -4 -4 -8 3 -5 -1 -19 -8 -33 -7 -13 -19 -46 -26
-72 -8 -26 -18 -47 -22 -47 -4 0 -5 -9 -3 -20 2 -11 -2 -26 -8 -33 -11 -11
-16 -24 -21 -52 -1 -5 -5 -16 -9 -22 -5 -7 -5 -17 -2 -23 3 -5 2 -10 -3 -10
-9 0 -26 -55 -23 -72 0 -5 -3 -8 -7 -8 -5 0 -9 -6 -9 -12 0 -7 -13 -53 -28
-103 -16 -49 -30 -94 -31 -100 -4 -13 -7 -27 -45 -165 -17 -63 -33 -124 -34
-135 -1 -11 -8 -33 -14 -49 -6 -15 -12 -40 -13 -55 -1 -14 -4 -30 -7 -36 -3
-5 -7 -19 -8 -30 -2 -11 -10 -49 -19 -85 -9 -36 -18 -76 -20 -90 -2 -14 -7
-36 -10 -50 -3 -14 -8 -36 -10 -50 -3 -14 -7 -34 -9 -45 -2 -11 -7 -33 -10
-50 -3 -16 -8 -41 -11 -55 -3 -14 -7 -41 -9 -60 -2 -19 -4 -35 -5 -35 -4 0
-27 -118 -36 -185 -2 -19 -9 -57 -14 -85 -13 -65 -11 -112 7 -156 15 -38 65
-74 89 -65 8 3 17 -1 20 -9 4 -8 16 -15 28 -15 13 0 26 -3 30 -7 3 -4 16 -8
29 -10 12 -2 26 -8 31 -13 6 -6 23 -10 38 -10 15 0 28 -4 28 -10 0 -5 10 -10
21 -10 18 0 88 -20 169 -48 8 -3 24 -7 35 -9 11 -2 31 -7 45 -12 14 -5 48 -14
75 -21 28 -7 57 -15 65 -18 8 -3 22 -6 30 -8 8 -1 53 -11 99 -23 46 -11 94
-21 106 -21 12 0 25 -3 29 -7 3 -4 25 -8 48 -10 23 -2 46 -7 52 -11 6 -5 27
-9 46 -11 19 -1 49 -6 65 -11 17 -5 39 -9 50 -8 11 0 34 -3 50 -6 17 -4 50
-10 75 -12 25 -3 59 -9 75 -14 17 -4 50 -8 74 -9 25 -1 49 -5 54 -8 5 -3 36
-7 70 -9 73 -4 135 -11 145 -17 4 -3 18 -1 31 4 21 8 23 14 18 62 -2 28 -12
86 -20 127 -9 41 -18 86 -21 100 -3 14 -10 50 -16 80 -19 93 -39 205 -45 253
-2 18 -9 61 -15 97 -6 36 -13 81 -15 100 -2 19 -7 55 -11 80 -7 52 -10 76 -19
180 -4 41 -9 93 -11 115 -18 202 -24 654 -10 855 4 63 9 135 11 160 3 53 14
150 21 200 3 19 7 49 9 65 2 17 7 48 10 70 4 22 8 54 10 70 2 17 6 41 10 55 3
14 8 41 11 60 9 49 12 65 15 65 1 0 2 14 3 30 1 17 5 35 9 41 3 6 8 22 11 37
2 14 14 60 25 102 12 41 21 84 21 96 0 11 4 18 8 15 4 -2 9 9 10 27 2 17 7 37
13 44 6 7 9 20 5 28 -3 8 0 15 6 15 6 0 8 3 5 7 -4 3 -2 12 4 20 6 7 8 13 4
13 -4 0 -2 7 5 15 7 8 9 15 5 15 -4 0 -3 6 2 13 5 6 16 32 23 57 7 25 17 50
22 56 5 7 8 16 6 20 -1 5 6 24 15 41 10 18 18 36 18 40 1 5 5 17 9 28 4 11 18
45 29 75 12 30 30 71 41 91 11 20 17 39 13 43 -3 3 -1 6 6 6 7 0 9 5 6 10 -3
6 -2 10 4 10 6 0 7 7 4 17 -4 11 -3 14 5 9 11 -6 17 5 13 27 0 4 4 7 10 7 5 0
8 4 4 9 -3 5 2 17 11 25 9 9 17 22 18 29 1 6 6 18 10 26 5 8 25 44 44 80 77
145 105 191 115 191 5 0 5 5 2 10 -3 6 -1 10 5 10 6 0 9 4 6 8 -3 5 8 25 24
44 16 19 26 38 23 42 -3 3 -1 6 6 6 7 0 9 5 6 10 -3 6 -2 10 3 10 4 0 28 30
53 67 24 38 52 78 63 90 10 11 17 24 16 28 -1 4 9 15 21 26 12 10 18 19 14 19
-4 0 2 9 15 20 13 11 20 20 15 20 -4 0 7 14 25 30 18 17 29 30 25 30 -5 0 2 9
15 20 13 11 19 20 15 20 -4 0 2 9 15 20 13 11 19 20 14 20 -5 0 5 9 21 20 17
11 26 20 20 20 -5 0 1 10 14 20 13 11 20 20 16 20 -4 0 12 18 35 40 23 22 39
44 35 50 -3 6 0 7 9 4 9 -3 16 -1 16 5 0 6 15 26 34 45 18 20 31 38 28 41 -3
3 1 5 9 5 8 0 23 14 34 30 11 16 26 30 33 30 7 0 10 5 7 10 -3 6 1 10 10 10 9
0 13 5 10 10 -3 6 2 10 11 10 10 0 15 3 11 6 -8 8 18 34 33 34 6 0 8 5 5 10
-3 6 1 10 10 10 9 0 13 5 10 10 -3 6 -1 10 5 10 16 0 87 76 96 102 8 25 -28
57 -64 58 -13 0 -21 4 -18 8 2 4 -7 9 -22 10 -14 1 -28 5 -31 10 -3 4 -15 8
-26 10 -11 2 -27 6 -35 9 -27 11 -40 11 -40 2z"/>
<path d="M6615 4111 c-2 -5 -17 -11 -32 -14 -16 -3 -41 -11 -58 -18 -16 -7
-35 -13 -42 -15 -28 -5 -131 -62 -125 -68 3 -4 -1 -4 -11 0 -10 3 -17 1 -17
-5 0 -6 -4 -11 -10 -11 -5 0 -37 -20 -71 -45 -34 -25 -58 -45 -54 -45 4 0 -9
-13 -30 -30 -21 -16 -34 -30 -29 -30 5 0 1 -5 -8 -11 -23 -13 -83 -123 -98
-178 -15 -59 -15 -148 2 -169 11 -13 11 -14 0 -8 -11 7 -12 4 -4 -10 5 -11 17
-37 27 -59 25 -53 95 -155 108 -155 6 0 8 -3 4 -6 -3 -3 14 -26 37 -50 24 -24
41 -44 38 -44 -3 0 7 -11 22 -25 15 -14 24 -25 21 -25 -5 0 42 -68 56 -80 3
-3 16 -31 28 -63 25 -61 37 -192 19 -213 -5 -7 -8 -16 -6 -20 3 -14 -38 -86
-66 -115 -14 -15 -23 -30 -20 -33 2 -3 1 -4 -2 -1 -4 2 -22 -9 -41 -25 -38
-33 -124 -80 -148 -80 -8 0 -15 -5 -15 -11 0 -5 -4 -7 -10 -4 -5 3 -10 4 -10
2 0 -7 494 -252 503 -249 4 1 7 -2 7 -7 0 -9 39 -23 75 -27 22 -2 161 52 185
72 8 7 18 13 23 13 17 1 77 34 77 43 0 5 5 6 10 3 6 -3 10 -1 10 5 0 6 4 9 9
5 5 -3 17 5 26 17 8 13 17 21 18 18 7 -15 136 111 157 154 11 23 20 37 20 31
1 -19 37 71 49 122 14 58 17 149 8 205 -7 39 -48 139 -66 160 -6 7 -30 37 -53
66 -23 28 -45 52 -50 52 -4 0 -8 4 -8 10 0 17 -33 49 -43 43 -6 -3 -8 -2 -4 3
3 5 -12 29 -34 54 -21 24 -39 50 -39 56 0 7 -7 14 -15 18 -8 3 -14 9 -13 13 1
4 -3 19 -9 33 -6 14 -15 34 -19 45 -14 38 -10 110 8 159 9 28 15 52 13 54 -3
3 5 13 17 23 11 11 18 19 14 19 -7 0 36 51 79 91 17 16 34 29 38 29 5 0 5 5 1
12 -4 6 -3 8 3 5 6 -4 22 4 37 17 22 18 24 25 14 33 -7 6 -15 11 -18 10 -3 0
-36 18 -75 40 -38 22 -91 53 -117 67 -63 34 -128 70 -182 101 -24 13 -47 21
-51 17 -5 -4 -5 -2 -2 5 8 13 -50 37 -58 24z"/>
<path d="M4157 4082 c-22 -3 -26 -7 -22 -25 2 -12 7 -44 10 -72 4 -27 9 -63
11 -80 5 -38 13 -127 19 -225 7 -94 7 -818 1 -960 -6 -129 -15 -258 -20 -285
-2 -11 -7 -54 -11 -95 -3 -41 -8 -82 -11 -91 -4 -14 24 -16 263 -16 256 -1
720 -11 848 -18 258 -16 245 -16 245 5 0 11 0 23 -1 26 0 4 3 10 8 13 8 6 70
159 78 193 2 9 9 26 15 38 6 11 8 25 5 30 -3 6 -1 10 4 10 6 0 11 7 11 15 0
12 -15 15 -67 16 -38 1 -93 3 -123 4 -30 2 -113 7 -185 10 -121 6 -234 12
-262 14 -9 1 -11 22 -8 79 11 206 17 307 20 310 3 4 39 10 111 20 63 8 248 7
377 -1 42 -3 77 -3 78 1 3 28 10 63 24 112 4 15 16 68 20 88 2 13 7 31 9 40 3
9 8 33 10 53 l5 36 -37 -4 c-95 -12 -614 -4 -628 10 -6 6 -6 76 1 207 4 74 7
143 7 152 0 10 4 20 10 24 30 19 388 31 571 20 73 -5 78 -4 72 14 -3 10 -7 27
-9 37 -6 29 -26 107 -33 123 -3 8 -7 28 -9 43 -2 16 -8 37 -14 47 -5 10 -10
30 -10 45 0 14 -7 28 -15 32 -16 6 -1317 11 -1368 5z"/>
<path d="M2967 4074 c-3 -3 -207 -10 -537 -20 -91 -2 -230 -7 -310 -9 -80 -3
-171 -6 -202 -6 -67 -1 -65 3 -58 -118 3 -47 5 -446 5 -887 l0 -800 670 2
c369 2 677 3 685 4 66 8 151 41 181 71 10 10 19 16 19 13 0 -4 7 -1 15 6 8 7
12 17 8 23 -3 5 -1 7 4 4 13 -8 36 17 25 28 -4 5 -2 5 4 2 11 -6 50 32 46 46
-1 4 2 6 6 5 4 -2 20 9 35 25 15 15 25 27 22 27 -3 0 11 15 31 33 57 49 114
126 114 153 0 13 -11 41 -24 62 -32 49 -116 138 -127 135 -5 -2 -8 0 -7 5 4
12 -35 52 -51 52 -8 0 -11 3 -8 7 8 7 -34 39 -46 35 -5 -1 -6 2 -3 7 3 5 -6
17 -21 27 -69 45 -86 67 -86 109 0 21 6 41 14 46 8 5 10 9 5 9 -5 0 1 9 14 20
13 11 19 20 15 20 -4 0 2 9 15 20 13 11 20 20 15 20 -4 0 3 9 16 20 13 10 20
19 15 20 -4 0 2 9 15 20 13 10 20 19 15 20 -4 0 2 9 15 20 13 10 21 19 17 20
-4 0 4 12 17 26 14 15 25 34 25 42 0 8 3 13 6 9 8 -8 84 103 84 123 0 9 -5 21
-12 28 -7 7 -8 12 -3 12 4 0 -2 8 -13 19 -12 10 -19 20 -16 23 3 3 -7 15 -22
27 -15 11 -23 21 -19 21 4 0 2 7 -5 15 -7 8 -17 12 -24 8 -6 -3 -8 -3 -4 2 11
11 -90 108 -244 233 -103 83 -168 113 -258 116 -39 1 -72 1 -73 0z m-277 -237
c98 -22 176 -61 228 -114 17 -18 32 -30 32 -26 1 26 64 -108 65 -137 1 -49
-44 -118 -105 -160 -28 -19 -60 -43 -70 -52 -10 -9 -21 -14 -24 -11 -3 4 -14
-1 -24 -10 -10 -10 -22 -14 -25 -11 -4 4 -13 2 -20 -5 -8 -6 -26 -12 -41 -13
-14 -1 -26 -5 -26 -8 0 -3 -8 -6 -17 -7 -10 0 -33 -3 -50 -6 -40 -5 -41 -4
-48 143 -4 63 -8 153 -11 200 -2 47 -6 114 -8 150 -2 36 -1 69 1 73 4 7 101 3
143 -6z m-68 -882 c30 -6 132 -28 138 -30 3 -1 20 -6 38 -10 17 -4 32 -11 32
-16 0 -5 3 -8 8 -7 4 1 21 -5 38 -15 17 -9 35 -13 39 -9 5 4 5 1 1 -5 -4 -8
-2 -13 7 -13 17 0 78 -66 95 -103 15 -35 16 -87 0 -124 -6 -15 -10 -32 -10
-36 1 -4 -5 -10 -13 -13 -8 -4 -15 -10 -15 -15 0 -13 -53 -64 -74 -72 -9 -4
-16 -11 -16 -17 0 -5 -7 -10 -15 -10 -8 0 -15 -5 -15 -11 0 -5 -4 -7 -10 -4
-5 3 -10 1 -10 -5 0 -6 -4 -8 -10 -5 -5 3 -10 1 -10 -4 0 -6 -3 -10 -7 -9 -5
1 -24 -4 -43 -11 -42 -16 -48 -18 -77 -23 -12 -2 -25 -7 -28 -10 -13 -13 -45
5 -46 26 -1 11 -2 32 -4 46 -2 14 -6 57 -10 95 -3 39 -8 86 -11 105 -2 19 -6
51 -8 70 -2 19 -7 62 -10 95 -4 33 -8 78 -10 100 -4 38 8 60 26 49 4 -3 18 -7
30 -9z"/>
<path d="M11225 3935 c4 -77 9 -185 12 -240 8 -144 8 -1041 0 -1165 -4 -58 -9
-148 -12 -201 l-4 -95 587 1 c323 1 596 4 607 8 22 7 63 15 107 22 15 2 36 9
46 14 11 6 22 7 26 4 3 -3 6 -1 6 5 0 7 7 12 15 12 22 0 106 46 98 54 -3 3 3
6 15 6 12 0 22 5 22 10 0 6 5 10 11 10 7 0 22 11 35 26 13 14 24 22 24 18 0
-3 35 30 78 74 81 84 102 108 102 117 0 3 8 14 18 24 29 33 37 44 62 91 14 25
28 47 33 48 4 2 7 8 7 13 0 6 10 31 21 57 12 25 22 51 23 57 1 5 9 33 18 60 9
28 17 57 18 65 4 56 3 210 -3 233 -4 15 -9 39 -13 54 -3 15 -8 31 -12 37 -3 6
-8 19 -9 28 -3 20 -83 201 -92 208 -3 3 -14 21 -24 40 -21 42 -48 77 -103 136
-22 24 -40 45 -39 46 1 2 -14 17 -34 33 -19 17 -31 23 -27 15 5 -8 -2 -3 -15
11 -25 27 -80 63 -139 91 -56 26 -120 48 -120 42 0 -4 -6 -2 -12 4 -7 5 -29
12 -48 15 -19 3 -66 12 -105 20 -117 26 -221 30 -714 31 l-473 1 7 -140z m907
-361 c29 -8 58 -16 63 -17 25 -7 132 -63 152 -80 11 -11 24 -17 27 -16 3 2 13
-6 21 -19 9 -12 22 -19 28 -16 7 4 9 4 6 0 -4 -4 17 -32 47 -63 30 -30 54 -59
54 -64 0 -6 3 -8 8 -6 8 6 26 -13 29 -31 2 -6 19 -34 39 -62 20 -27 33 -50 31
-50 -3 0 0 -11 7 -25 10 -19 11 -36 3 -73 -6 -26 -16 -50 -21 -54 -6 -4 -7 -8
-3 -8 4 0 -12 -25 -37 -56 -26 -31 -46 -60 -46 -66 0 -5 -4 -7 -9 -4 -9 6 -61
-48 -61 -64 0 -5 -4 -9 -8 -7 -5 1 -25 -11 -46 -28 -99 -79 -139 -105 -161
-105 -9 0 -18 -6 -21 -14 -3 -8 -13 -12 -25 -9 -10 3 -19 1 -19 -4 0 -26 -279
-54 -281 -29 -16 192 -16 760 0 983 1 17 149 8 223 -13z"/>
<path d="M8742 4045 c-7 -15 -10 -31 -7 -36 4 -5 1 -9 -4 -9 -6 0 -11 -9 -11
-19 0 -11 -5 -23 -11 -26 -6 -4 -8 -13 -5 -21 3 -8 2 -14 -3 -14 -5 0 -16 -21
-26 -47 -23 -62 -53 -131 -71 -165 -9 -16 -12 -28 -7 -28 4 0 3 -4 -2 -8 -9
-6 -35 -55 -41 -74 -1 -5 -3 -11 -4 -15 -1 -5 -2 -11 -1 -15 0 -5 -3 -8 -8 -8
-8 0 -67 -119 -64 -130 2 -7 -21 -10 -100 -13 -31 -1 -57 0 -58 3 0 3 -1 147
-2 320 l-2 315 -105 -2 c-58 -2 -170 -5 -250 -9 -80 -3 -188 -6 -240 -7 l-95
-2 2 -160 c1 -88 5 -263 8 -390 11 -378 8 -692 -10 -1106 l-6 -145 348 0 348
1 1 300 0 300 55 1 c66 1 83 -7 99 -45 7 -17 17 -28 23 -24 5 3 7 1 4 -5 -9
-14 250 -399 275 -410 5 -2 8 -10 8 -17 0 -8 10 -21 23 -30 12 -8 22 -19 22
-23 0 -4 4 -6 8 -4 5 1 6 -2 3 -7 -11 -17 23 -34 57 -28 17 4 46 9 62 11 108
20 269 51 320 62 11 3 32 5 48 6 15 1 27 4 27 7 0 3 19 7 42 8 23 2 58 8 77
14 19 7 51 13 70 14 20 1 38 4 41 5 3 1 10 2 15 1 6 -1 3 4 -5 11 -8 7 -31 34
-50 60 -19 26 -41 48 -47 48 -7 0 -12 4 -10 9 1 5 -9 21 -23 37 -14 16 -63 76
-110 134 -47 58 -95 115 -107 126 -12 12 -20 24 -17 27 3 3 -7 14 -22 26 -15
11 -24 21 -21 21 4 0 -28 44 -69 97 -42 53 -78 103 -81 110 -3 7 -10 10 -16 6
-5 -3 -7 -1 -3 5 3 6 2 13 -3 16 -11 7 -5 49 9 76 5 10 6 20 3 24 -3 3 -1 6 5
6 7 0 12 7 12 15 0 8 5 15 12 15 6 0 8 3 5 6 -4 4 2 19 12 33 30 44 96 166 93
174 -1 4 3 7 9 7 5 0 7 5 4 10 -3 6 -2 10 3 10 4 0 18 19 31 43 12 23 31 56
41 72 26 40 50 83 52 92 1 5 10 17 20 27 10 11 18 26 18 33 0 7 4 13 9 13 5 0
14 14 21 30 7 17 16 30 20 30 4 0 13 14 20 30 7 17 16 30 21 30 4 0 11 9 14
20 3 11 13 27 21 35 14 13 13 15 -3 17 -47 4 -103 13 -128 21 -11 3 -40 8 -65
11 -25 3 -55 8 -66 10 -29 6 -94 17 -121 21 -12 2 -34 6 -50 9 -15 4 -41 8
-58 11 -34 5 -80 13 -110 20 -11 2 -41 7 -66 10 -42 6 -46 4 -57 -20z"/>
<path d="M10300 3989 c-88 -25 -168 -81 -177 -125 -14 -63 -14 -72 1 -87 9 -8
16 -18 16 -21 0 -12 34 -45 42 -40 4 3 8 1 8 -4 0 -10 57 -40 93 -49 91 -21
123 -22 215 -8 28 4 52 12 52 18 0 6 3 8 6 4 10 -10 79 31 109 65 36 40 42
100 15 143 -18 29 -91 92 -75 64 5 -8 -3 -4 -16 8 -13 12 -35 23 -49 25 -14 2
-29 6 -35 9 -17 9 -168 8 -205 -2z"/>
<path d="M10005 3350 c-2 -4 -3 -29 0 -56 2 -27 7 -92 12 -144 4 -52 7 -280 6
-505 l-1 -411 373 0 373 0 -3 126 c-5 161 -5 398 0 525 7 173 15 338 19 406
l4 66 -389 0 c-214 1 -391 -3 -394 -7z"/>
<path d="M4038 1695 c-2 -2 -21 -6 -43 -9 -59 -8 -76 -13 -114 -32 -47 -23
-71 -46 -64 -57 3 -6 1 -7 -6 -3 -7 5 -17 -6 -27 -30 -18 -42 -9 -91 24 -129
21 -26 82 -64 108 -68 10 -1 24 -6 30 -10 22 -13 127 -16 178 -4 54 12 150 57
148 69 -1 4 9 18 22 31 17 17 23 33 22 63 -2 42 -33 104 -53 104 -7 0 -13 4
-13 9 0 11 -84 47 -130 55 -19 3 -45 8 -57 10 -11 3 -23 3 -25 1z"/>
<path d="M4767 1692 c-26 -2 -45 -7 -42 -11 2 -5 7 -37 11 -72 3 -35 7 -80 9
-99 23 -212 23 -924 1 -1180 -6 -69 -17 -171 -21 -188 -3 -16 22 -17 319 -18
289 -1 371 -4 597 -19 70 -5 85 2 92 41 2 10 7 26 10 34 15 35 46 130 42 130
-2 0 4 20 15 45 14 32 16 45 7 46 -7 0 -37 2 -67 4 -67 5 -297 17 -362 19 -35
1 -48 5 -49 16 -4 64 11 303 19 312 19 19 278 32 369 18 47 -7 52 -5 58 37 3
16 13 66 23 113 9 47 17 96 17 110 0 24 -2 25 -50 21 -120 -10 -419 -1 -445
14 -9 5 3 311 13 321 8 8 159 15 325 15 148 0 163 2 158 17 -2 9 -8 33 -12 52
-4 19 -9 40 -10 45 -10 38 -16 64 -20 92 -6 47 -22 83 -36 84 -57 2 -934 3
-971 1z"/>
<path d="M10026 1693 c-1 -1 -40 -3 -86 -4 -47 -1 -90 -4 -96 -6 -8 -3 -11
-34 -9 -91 2 -48 6 -190 10 -317 9 -284 10 -659 1 -865 -4 -85 -8 -184 -9
-220 l-2 -65 231 0 c154 -1 231 3 231 10 2 25 14 269 18 355 6 113 17 392 18
438 1 39 6 40 32 5 30 -41 107 -128 117 -131 4 -2 8 -8 8 -13 0 -8 29 -43 103
-120 20 -21 37 -41 37 -44 0 -3 10 -16 23 -29 38 -38 142 -158 145 -167 2 -5
10 -9 18 -9 8 0 13 -4 11 -9 -1 -5 15 -25 35 -45 20 -20 35 -36 32 -36 -3 0
14 -19 38 -43 24 -24 64 -66 90 -93 26 -27 53 -54 61 -60 13 -11 338 -11 356
0 5 3 7 20 5 38 -2 18 -6 84 -9 148 -2 63 -7 171 -11 240 -7 135 -9 773 -3
985 l4 130 -100 2 c-55 1 -174 4 -265 6 -161 5 -195 2 -185 -12 2 -5 7 -48 10
-97 4 -49 8 -107 10 -129 2 -22 6 -80 9 -130 4 -49 8 -103 10 -120 3 -16 7
-75 11 -130 7 -96 7 -99 -11 -85 -11 8 -25 23 -32 33 -8 10 -32 36 -53 58 -21
22 -39 42 -39 45 0 5 -106 116 -226 238 -76 76 -247 235 -304 282 -19 16 -41
36 -48 44 -12 13 -13 13 -6 0 7 -13 6 -13 -9 -1 -11 9 -45 14 -93 15 -42 1
-77 0 -78 -1z"/>
<path d="M6327 1682 c-13 -3 -15 -12 -11 -45 4 -39 11 -141 19 -292 18 -321
23 -779 10 -1065 l-6 -155 485 0 c426 0 486 2 488 15 0 8 2 20 3 25 2 15 18
118 20 135 2 8 5 29 8 45 3 17 9 50 13 75 4 25 9 54 10 65 2 11 6 32 8 47 2
14 7 41 12 60 14 65 14 79 -4 74 -10 -2 -33 -7 -52 -10 -19 -3 -46 -9 -60 -12
-14 -2 -43 -7 -65 -9 -22 -2 -62 -7 -90 -10 -27 -4 -94 -8 -147 -9 -83 -2 -98
0 -99 13 -1 9 -3 32 -5 51 -7 60 -7 600 0 705 4 55 9 136 12 180 2 44 5 89 7
99 2 19 -7 20 -269 20 -148 1 -278 0 -287 -2z"/>
<path d="M8567 1684 c-1 -1 -42 -5 -92 -8 -49 -3 -110 -11 -135 -16 -25 -6
-61 -13 -80 -16 -19 -4 -37 -9 -40 -13 -3 -3 -16 -8 -30 -10 -14 -1 -27 -6
-30 -10 -3 -3 -14 -8 -25 -9 -11 -2 -21 -8 -23 -13 -2 -5 -10 -9 -18 -9 -8 0
-14 -5 -14 -11 0 -5 -4 -8 -9 -4 -5 3 -15 0 -23 -7 -7 -7 -24 -19 -38 -26 -30
-15 -127 -102 -114 -102 5 0 -2 -7 -14 -16 -12 -8 -20 -20 -17 -25 4 -5 0 -9
-7 -9 -13 0 -45 -57 -40 -72 1 -5 -2 -8 -7 -8 -7 0 -34 -52 -36 -70 -1 -3 -4
-14 -8 -25 -6 -20 -8 -29 -26 -115 -16 -79 -6 -347 16 -400 3 -8 7 -26 9 -40
5 -42 94 -211 130 -247 18 -18 31 -33 27 -33 -3 0 0 -7 7 -15 7 -8 16 -13 20
-10 5 3 11 -3 14 -12 3 -10 23 -29 43 -43 21 -14 40 -28 43 -31 8 -10 149 -79
157 -77 5 0 19 -3 33 -9 14 -6 41 -13 60 -16 19 -3 42 -7 50 -11 44 -17 327
-24 440 -11 36 4 71 8 78 8 6 0 12 3 12 7 0 3 8 6 18 6 37 2 84 15 138 39 31
14 62 25 69 25 7 0 24 11 38 24 14 13 27 22 30 20 6 -6 122 97 120 107 -2 5 0
8 5 6 4 -1 9 3 11 8 2 6 12 16 23 23 10 7 16 18 13 23 -4 5 -2 9 4 9 11 0 57
80 53 93 -1 4 3 7 8 7 5 0 9 3 8 8 -1 4 4 20 10 35 7 15 11 31 10 35 -1 4 3
17 10 28 6 12 9 24 6 27 -3 3 -2 12 2 19 5 7 11 24 13 38 8 39 6 301 -2 345
-4 22 -9 49 -10 60 -9 65 -89 245 -109 245 -5 0 -7 4 -4 9 12 19 -124 140
-214 189 -43 24 -181 72 -190 67 -5 -3 -10 -1 -12 4 -3 9 -44 16 -158 27 -48
5 -199 11 -203 8z m126 -366 c9 -1 17 -6 17 -11 0 -5 6 -7 13 -4 7 3 21 -1 31
-9 11 -7 23 -11 27 -8 5 3 9 0 9 -5 0 -6 6 -11 13 -11 7 0 30 -15 52 -32 22
-18 36 -26 30 -17 -5 8 0 3 12 -11 13 -14 28 -25 35 -25 7 0 13 -6 13 -13 0
-8 8 -19 17 -26 10 -7 15 -15 13 -18 -3 -3 1 -11 10 -18 8 -7 15 -19 15 -26 0
-8 5 -14 10 -14 6 0 9 -3 9 -7 -1 -5 0 -10 1 -13 12 -31 15 -109 6 -170 -4
-30 -7 -57 -6 -59 1 -2 -3 -7 -10 -11 -6 -4 -12 -17 -13 -28 -1 -12 -5 -22
-10 -22 -4 0 -6 -4 -3 -9 4 -5 3 -11 -2 -13 -9 -4 -57 -70 -57 -80 0 -3 -4
-10 -9 -15 -5 -5 -6 -2 -1 7 4 8 -6 0 -24 -18 -17 -18 -31 -30 -31 -25 0 4 -4
3 -8 -3 -6 -9 -66 -45 -82 -49 -3 -1 -14 -5 -24 -10 -10 -5 -31 -9 -45 -11
-14 -1 -26 -3 -26 -4 0 -8 -129 -4 -167 6 -27 7 -48 10 -48 7 0 -3 -7 0 -15 7
-8 7 -15 9 -15 5 0 -4 -7 -2 -15 5 -8 7 -15 9 -15 6 0 -4 -7 0 -16 8 -8 9 -20
13 -26 10 -7 -4 -8 -2 -4 4 7 11 -6 17 -27 13 -5 -1 -6 3 -2 9 3 5 2 10 -4 10
-6 0 -24 13 -40 29 -16 16 -32 26 -35 23 -3 -3 -6 2 -6 11 0 9 -6 20 -13 24
-16 10 -53 88 -63 133 -7 34 -8 129 -1 160 16 67 36 117 58 144 76 95 173 161
251 170 3 1 9 3 11 6 5 5 167 3 210 -2z"/>
<path d="M11936 1682 c-2 -1 -33 -3 -69 -4 -37 -1 -67 -6 -67 -10 0 -4 5 -8
10 -8 6 0 9 -3 8 -8 -4 -10 105 -256 114 -260 5 -2 8 -10 8 -17 0 -8 17 -51
39 -97 21 -46 44 -100 51 -120 8 -20 16 -35 20 -33 3 2 7 -5 7 -17 1 -11 10
-32 20 -46 9 -15 18 -31 18 -37 1 -5 7 -23 15 -40 7 -16 14 -32 15 -35 0 -3
12 -27 25 -55 13 -27 24 -52 25 -55 1 -3 8 -18 15 -35 7 -16 13 -33 12 -37 -1
-5 3 -8 8 -8 6 0 10 -9 10 -20 0 -11 4 -20 10 -20 5 0 9 -3 8 -7 -3 -12 13
-57 23 -63 4 -3 -6 -37 -23 -75 -16 -39 -35 -81 -41 -95 -5 -14 -11 -27 -12
-30 0 -3 -6 -15 -13 -28 -7 -12 -10 -26 -7 -31 3 -5 1 -11 -4 -13 -5 -1 -11
-10 -13 -18 -2 -8 -5 -17 -8 -20 -7 -7 -71 -152 -74 -167 -1 -7 -5 -16 -9 -19
-26 -26 3 -29 267 -30 267 0 275 1 285 21 9 16 51 127 57 145 0 3 7 21 15 40
7 19 12 38 11 43 -1 4 3 7 8 7 5 0 9 3 8 8 -2 7 40 122 68 189 8 17 14 34 14
38 0 4 6 21 14 38 8 18 19 46 24 62 6 17 31 84 57 150 26 66 48 125 49 130 1
6 4 15 7 20 5 8 31 79 34 95 1 3 6 16 12 30 16 35 57 143 59 153 1 4 3 9 4 12
1 3 3 8 5 13 1 4 5 16 10 27 34 83 62 165 57 169 -3 3 -1 6 5 6 5 0 10 6 10
13 1 6 11 40 24 74 13 34 20 65 16 69 -13 13 -437 15 -437 2 0 -6 -16 -52 -37
-102 -20 -50 -36 -97 -36 -103 0 -7 -3 -13 -7 -13 -4 0 -7 -6 -7 -12 -1 -15
-90 -254 -104 -281 -5 -10 -7 -23 -3 -29 4 -6 1 -9 -7 -6 -8 3 -19 14 -25 26
-6 12 -14 19 -19 14 -5 -4 -5 -2 -1 5 4 7 -1 27 -11 45 -9 18 -16 36 -15 41 1
4 -2 7 -8 7 -5 0 -10 6 -10 14 0 7 -13 44 -29 82 -34 79 -111 296 -111 311 0
9 -366 14 -374 5z"/>
<path d="M1942 1667 c0 -7 -12 -52 -25 -102 -14 -49 -37 -134 -52 -188 -14
-53 -28 -105 -30 -115 -2 -9 -9 -33 -14 -52 -6 -19 -11 -36 -11 -38 0 -3 94 5
165 14 109 14 244 24 388 29 67 2 87 0 87 -11 0 -7 -5 -16 -10 -19 -6 -4 -8
-11 -5 -16 4 -5 1 -9 -5 -9 -6 0 -8 -4 -5 -10 3 -5 1 -10 -5 -10 -6 0 -16 -12
-22 -27 -7 -16 -23 -45 -35 -65 -13 -21 -20 -38 -16 -38 5 0 3 -4 -2 -8 -11
-7 -33 -40 -63 -94 -56 -99 -157 -265 -170 -280 -8 -10 -11 -18 -6 -18 5 0 4
-4 -1 -8 -19 -13 -49 -67 -47 -81 2 -7 -1 -10 -6 -7 -5 3 -15 -8 -22 -24 -7
-17 -16 -30 -20 -30 -5 0 -13 -12 -20 -28 -19 -46 -34 -72 -42 -72 -5 0 -8 -7
-8 -15 0 -8 -4 -15 -8 -15 -8 0 -38 -55 -30 -55 3 0 -6 -11 -38 -48 -5 -7 -19
-28 -30 -47 -10 -19 -23 -38 -29 -42 -9 -7 18 -13 39 -9 90 18 1297 14 1325
-3 18 -12 32 20 66 149 20 77 38 150 41 162 2 12 9 34 14 48 5 14 7 25 5 25
-2 0 0 12 6 27 6 16 13 39 15 53 3 14 7 32 10 41 3 12 -1 16 -18 14 -13 -1
-23 -3 -23 -4 0 -1 -20 -4 -45 -6 -25 -2 -67 -6 -95 -10 -63 -8 -413 -10 -421
-3 -6 6 35 92 87 183 16 28 34 61 41 75 7 14 15 27 19 30 3 3 12 20 20 38 8
17 18 32 22 32 5 0 5 5 2 10 -3 6 -2 10 2 10 5 0 19 19 31 43 32 62 114 191
126 199 6 4 7 8 3 8 -5 0 3 14 17 31 14 17 23 36 20 41 -4 7 -2 8 4 4 11 -7
17 6 13 27 -1 5 2 6 7 3 5 -3 17 9 27 27 10 18 31 49 47 69 17 21 26 43 22 49
-4 7 -3 9 4 5 6 -3 13 3 17 14 3 11 9 20 13 20 4 0 18 18 32 40 14 22 28 40
33 40 4 0 5 5 2 10 -3 6 0 13 9 16 8 3 17 12 20 19 4 12 -31 13 -212 8 -277
-7 -873 -7 -1063 1 -111 4 -146 2 -147 -7z"/>
<path d="M3736 1031 c-2 -3 -2 -19 0 -36 2 -16 6 -61 8 -100 2 -38 8 -108 12
-155 4 -47 8 -203 8 -347 0 -145 3 -264 6 -264 3 -1 134 -2 293 -3 300 -2 295
-3 288 37 -9 58 -14 517 -8 777 l2 95 -303 1 c-166 1 -304 -1 -306 -5z"/>
</g>
</svg>
