<svg width="80" height="87" viewBox="0 0 80 87" fill="none" xmlns="http://www.w3.org/2000/svg">
<path d="M77.1429 32.2163H2.85714C1.28571 32.2163 0 33.502 0 35.0735V77.9306C0 82.6449 3.85714 86.502 8.57143 86.502H71.4286C76.1429 86.502 80 82.6449 80 77.9306V35.0735C80 33.502 78.7143 32.2163 77.1429 32.2163ZM25.7143 72.2163C25.7143 73.7877 24.4286 75.0735 22.8571 75.0735H17.1429C15.5714 75.0735 14.2857 73.7877 14.2857 72.2163V66.502C14.2857 64.9306 15.5714 63.6449 17.1429 63.6449H22.8571C24.4286 63.6449 25.7143 64.9306 25.7143 66.502V72.2163ZM25.7143 52.2163C25.7143 53.7877 24.4286 55.0735 22.8571 55.0735H17.1429C15.5714 55.0735 14.2857 53.7877 14.2857 52.2163V46.502C14.2857 44.9306 15.5714 43.6449 17.1429 43.6449H22.8571C24.4286 43.6449 25.7143 44.9306 25.7143 46.502V52.2163ZM45.7143 72.2163C45.7143 73.7877 44.4286 75.0735 42.8571 75.0735H37.1429C35.5714 75.0735 34.2857 73.7877 34.2857 72.2163V66.502C34.2857 64.9306 35.5714 63.6449 37.1429 63.6449H42.8571C44.4286 63.6449 45.7143 64.9306 45.7143 66.502V72.2163ZM45.7143 52.2163C45.7143 53.7877 44.4286 55.0735 42.8571 55.0735H37.1429C35.5714 55.0735 34.2857 53.7877 34.2857 52.2163V46.502C34.2857 44.9306 35.5714 43.6449 37.1429 43.6449H42.8571C44.4286 43.6449 45.7143 44.9306 45.7143 46.502V52.2163ZM65.7143 72.2163C65.7143 73.7877 64.4286 75.0735 62.8571 75.0735H57.1429C55.5714 75.0735 54.2857 73.7877 54.2857 72.2163V66.502C54.2857 64.9306 55.5714 63.6449 57.1429 63.6449H62.8571C64.4286 63.6449 65.7143 64.9306 65.7143 66.502V72.2163ZM65.7143 52.2163C65.7143 53.7877 64.4286 55.0735 62.8571 55.0735H57.1429C55.5714 55.0735 54.2857 53.7877 54.2857 52.2163V46.502C54.2857 44.9306 55.5714 43.6449 57.1429 43.6449H62.8571C64.4286 43.6449 65.7143 44.9306 65.7143 46.502V52.2163Z" fill="#027D4D"/>
<path d="M71.4286 9.35915H64.2857V6.50201C64.2857 3.35915 61.7143 0.78772 58.5714 0.78772C55.4286 0.78772 52.8571 3.35915 52.8571 6.50201V9.35915H27.1429V6.50201C27.1429 3.35915 24.5714 0.78772 21.4286 0.78772C18.2857 0.78772 15.7143 3.35915 15.7143 6.50201V9.35915H8.57143C3.85714 9.35915 0 13.2163 0 17.9306V20.7877C0 22.3592 1.28571 23.6449 2.85714 23.6449H77.1429C78.7143 23.6449 80 22.3592 80 20.7877V17.9306C80 13.2163 76.1429 9.35915 71.4286 9.35915Z" fill="#027D4D"/>
</svg>
