<svg width="80" height="75" viewBox="0 0 80 75" fill="none" xmlns="http://www.w3.org/2000/svg">
<path d="M31.4602 19.9716C31.1471 19.6586 30.64 19.6586 30.327 19.9716L25.4668 24.831C25.3164 24.9814 25.2319 25.1848 25.2319 25.3976C25.2319 25.6105 25.3164 25.8141 25.4668 25.9643L39.7063 40.203C39.8629 40.3596 40.0679 40.4378 40.2729 40.4378C40.4779 40.4378 40.683 40.3596 40.8395 40.203L69.2981 11.7443C69.6112 11.4313 69.6112 10.9241 69.2981 10.6111L64.4387 5.75087C64.2884 5.60052 64.085 5.51605 63.8721 5.51605C63.6593 5.51605 63.4556 5.60068 63.3052 5.75087L40.2727 28.7842L31.4602 19.9716Z" fill="#027D4D"/>
<path d="M79.6671 29.4346C79.6669 29.434 79.6663 29.4335 79.666 29.4328C79.2574 28.2046 78.5111 27.1715 77.5053 26.4457L65.5151 17.7941L63.219 20.0902L75.4833 28.9395L75.6293 29.0448C75.7593 29.1387 75.8579 29.2711 75.969 29.3891C75.9956 29.4173 76.0251 29.442 76.0504 29.4716C76.1637 29.8177 76.045 30.2054 75.7209 30.4027L3.62939 74.2968C4.36062 74.6138 5.1643 74.7937 6.01061 74.7937H73.9883C77.3029 74.7937 79.9999 72.0975 79.9999 68.783V31.32C79.9997 30.726 79.8909 30.1092 79.6671 29.4346Z" fill="#027D4D"/>
<path d="M4.03024 29.3888C4.14084 29.2715 4.23925 29.1392 4.3686 29.0456L38.3573 4.52054C39.3403 3.81143 40.6582 3.81143 41.6412 4.52054L53.6234 13.1664L55.9195 10.8701L43.5166 1.92053C41.4128 0.40214 38.5859 0.40214 36.4821 1.92053L2.49261 26.4464C1.4897 27.1709 0.742767 28.2025 0.333235 29.4313C0.332915 29.4321 0.332113 29.4329 0.331793 29.4337C0.108674 30.1067 0 30.7235 0 31.3199V68.783C0 70.6106 0.837175 72.2301 2.12828 73.3334L39.1663 50.782L4.03024 29.3888Z" fill="#027D4D"/>
</svg>
