<svg width="80" height="136" viewBox="0 0 80 136" fill="none" xmlns="http://www.w3.org/2000/svg">
<path d="M41.0522 27.0796C48.3125 27.0796 54.1981 21.194 54.1981 13.9337C54.1981 6.67336 48.3125 0.78772 41.0522 0.78772C33.7919 0.78772 27.9062 6.67336 27.9062 13.9337C27.9062 21.194 33.7919 27.0796 41.0522 27.0796Z" fill="#027D4D"/>
<path d="M22.1117 50.7481C20.0936 48.5571 18.9405 45.6454 18.9693 42.6183C18.9693 42.1859 18.9981 41.7535 19.0558 41.3499H10.3207V82.3733H23.4666L22.1117 50.7481Z" fill="#027D4D"/>
<path d="M27.2145 89.4076L23.0055 135.418H33.0091L42.6091 95.5481L42.0613 95.3175L27.2145 89.4076Z" fill="#027D4D"/>
<path d="M34.3928 35.8147C33.2108 35.2093 32 34.921 30.7892 34.921C28.3387 34.921 26.0036 36.103 24.5621 38.0345C24.3892 38.2652 24.245 38.4958 24.1009 38.7264C23.6396 39.5048 23.2937 40.3697 23.1495 41.321C23.063 41.7535 23.0342 42.1859 23.0342 42.6471C23.0054 45.1264 24.1874 47.4327 26.0901 48.903C26.5513 49.2489 27.0702 49.5661 27.6468 49.8255L39.0054 54.294L48.3171 57.9553L55.8126 60.8958L80 44.6075L76.0216 38.0922L54.227 47.6922L34.3928 35.8147Z" fill="#027D4D"/>
<path d="M48.0288 62.1931L37.5063 58.0418L26.2631 53.631L27.5027 82.3733L27.618 85.2274L43.5604 91.5697L45.7513 92.4634L58.7531 97.6526L62.0685 135.418H71.9856L75.9928 89.0328L47.3369 73.4075L48.0288 62.1931Z" fill="#027D4D"/>
<path d="M6.28468 55.9949H0V82.4021H6.28468V55.9949Z" fill="#027D4D"/>
<path d="M20.2667 37.3138C20.382 37.0832 20.4973 36.8814 20.6414 36.6508L20.7568 36.449L20.9009 36.276C20.9586 36.1895 21.0162 36.103 21.0739 36.0165L21.1892 35.8147L21.3333 35.6129C22.4288 34.1715 23.8414 32.9895 25.427 32.1823C24.591 28.7805 21.5351 26.2724 17.8739 26.2724C13.5784 26.2724 10.0901 29.7607 10.0901 34.0562C10.0901 35.2093 10.3495 36.3337 10.8108 37.3138H20.2667Z" fill="#027D4D"/>
</svg>
